<?xml version="1.0" standalone="no"?>
<!DOCTYPE svg PUBLIC "-//W3C//DTD SVG 20010904//EN"
 "http://www.w3.org/TR/2001/REC-SVG-20010904/DTD/svg10.dtd">
<svg version="1.0" xmlns="http://www.w3.org/2000/svg"
 width="1406.000000pt" height="1410.000000pt" viewBox="0 0 1406.000000 1410.000000"
 preserveAspectRatio="xMidYMid meet">
<metadata>
Created by potrace 1.15, written by Peter Selinger 2001-2017
</metadata>
<g transform="translate(0.000000,1410.000000) scale(0.100000,-0.100000)"
fill="#3b097b" stroke="none">
<path d="M8419 9103 c-1125 -1126 -1595 -1602 -1639 -1663 -129 -176 -227
-372 -283 -565 -146 -505 -65 -1061 218 -1490 157 -238 401 -463 631 -581 51
-27 94 -52 94 -56 0 -11 -86 -67 -143 -93 -166 -76 -357 -73 -524 7 -79 38
-258 206 -781 731 l-314 314 41 204 c22 112 78 386 124 609 95 451 111 544
128 740 16 184 6 515 -21 695 -65 438 -222 849 -463 1213 -297 448 -652 758
-1059 924 -613 249 -1223 155 -1723 -264 -352 -295 -591 -673 -669 -1061 -41
-197 -39 -436 4 -646 59 -289 224 -619 432 -866 42 -49 497 -510 1010 -1023
l933 -932 -17 -133 c-28 -206 -35 -555 -14 -697 10 -63 20 -118 24 -122 4 -3
183 35 397 86 l390 93 360 -356 c403 -399 463 -447 690 -560 600 -298 1289
-243 1845 146 80 57 428 399 2263 2232 1192 1191 2167 2170 2167 2176 0 13
-812 825 -825 825 -5 0 -714 -704 -1575 -1564 -1501 -1499 -1568 -1565 -1637
-1599 -396 -194 -853 67 -880 502 -6 109 13 207 63 310 37 75 64 103 1601
1641 859 861 1563 1570 1563 1575 0 13 -812 825 -825 825 -6 0 -720 -710
-1586 -1577z m-4494 -81 c390 -136 749 -632 850 -1173 56 -301 32 -598 -91
-1118 -5 -22 -73 43 -660 630 -441 441 -671 678 -705 726 -88 128 -139 262
-139 369 0 141 102 314 269 457 159 136 303 169 476 109z"/>
</g>
</svg>
