<?xml version="1.0" encoding="UTF-8"?>
<!-- Generator: Adobe Illustrator 16.0.0, SVG Export Plug-In . SVG Version: 6.00 Build 0)  -->
<!DOCTYPE svg PUBLIC "-//W3C//DTD SVG 1.1//EN" "http://www.w3.org/Graphics/SVG/1.1/DTD/svg11.dtd">
<svg version="1.1" id="Layer_1" xmlns="http://www.w3.org/2000/svg" xmlns:xlink="http://www.w3.org/1999/xlink" x="0px" y="0px" width="612px" height="792px" viewBox="0 0 612 792" enable-background="new 0 0 612 792" xml:space="preserve">
<g>
	<g>
		<path fill="#020202" d="M55.845,504.449l11.867-38.493h15.557l11.768,38.493l13.263-38.493h16.155l-23.335,66.914H90.05    l-14.659-46.571l-14.56,46.571H49.762l-23.335-66.914h16.154L55.845,504.449z"/>
		<path fill="#020202" d="M132.531,465.956h14.959v66.914h-14.959V465.956z"/>
		<path fill="#020202" d="M163.945,465.956h14.958v27.523l25.23-27.523h18.448l-26.626,29.617    c2.294,3.191,6.582,9.175,12.765,17.851s10.771,15.158,13.861,19.446H205.13l-19.546-26.427l-6.682,7.479v18.947h-14.958V465.956    L163.945,465.956z"/>
		<path fill="#020202" d="M231.856,465.956h14.959v66.914h-14.959V465.956z"/>
		<path fill="#020202" d="M323.202,490.787l-18.05,36.598h-8.976l-17.95-36.598v42.083h-14.958v-66.914h20.243l17.252,36.798    l17.353-36.798h20.144v66.914h-14.958v-42.083H323.202z"/>
		<path fill="#020202" d="M402.881,465.956v13.263h-33.308v13.762h29.917v12.765h-29.917v13.861h34.305v13.164h-49.264v-66.915    h48.267V465.956z"/>
		<path fill="#020202" d="M468.299,474.731c6.382,5.884,9.573,13.961,9.573,24.332s-3.092,18.648-9.374,24.731    c-6.183,6.083-15.756,9.075-28.521,9.075h-22.837v-66.914h23.635C452.842,465.956,461.916,468.947,468.299,474.731z     M457.329,514.521c3.689-3.49,5.484-8.477,5.484-15.058c0-6.582-1.795-11.668-5.484-15.158c-3.689-3.59-9.274-5.285-16.854-5.285    H432.1v40.687h9.474C448.454,519.706,453.74,518.011,457.329,514.521z"/>
		<path fill="#020202" d="M490.836,465.956h14.959v66.914h-14.959V465.956z"/>
		<path fill="#020202" d="M569.916,532.87l-6.183-14.46h-28.022l-6.183,14.46h-15.855l28.919-66.914h14.46l28.92,66.914H569.916z     M549.673,485.9l-8.377,19.446h16.753L549.673,485.9z"/>
	</g>
	<g>
		<path fill="#020202" d="M176.249,570.393h21.698v4.521h-8.284v22.078h-5.13v-22.078h-8.284V570.393z"/>
		<path fill="#020202" d="M239.86,596.992l-2.356-5.624h-12.996l-2.356,5.624h-5.282l11.666-26.6h5.282l11.514,26.6H239.86z     M226.332,586.998h9.348l-4.636-11.172L226.332,586.998z"/>
		<path fill="#020202" d="M267.181,570.393h5.092v26.6h-5.092V570.393z"/>
		<path fill="#020202" d="M329.692,570.393h5.281l-9.006,26.6h-5.281l-6.08-20.178l-6.194,20.178h-5.206l-8.968-26.6h5.472    l6.27,21.09l6.232-21.09h5.016l6.271,21.166L329.692,570.393z"/>
		<path fill="#020202" d="M376.62,596.992l-2.356-5.624h-12.996l-2.355,5.624h-5.282l11.666-26.6h5.282l11.514,26.6H376.62z     M363.092,586.998h9.349l-4.637-11.172L363.092,586.998z"/>
		<path fill="#020202" d="M422.486,570.393h4.94v26.6H422.6l-13.68-18.316v18.316h-4.979v-26.6h4.826l13.718,18.354V570.393z"/>
	</g>
</g>
<path display="none" fill="#FFFFFF" d="M316.421,382.787c35.8-5.086,63.323-35.8,63.323-73.097  c0-22.637-10.171-42.881-26.227-56.344l-37.196,37.197v92.244H316.421z"/>
<path display="none" fill="#FFFFFF" d="M295.579,382.787v-92.244l-37.197-37.197c-16.056,13.563-26.227,33.806-26.227,56.344  C232.255,346.886,259.779,377.701,295.579,382.787z"/>
<path display="none" fill="#FFFFFF" d="M370.171,245.568c17.152,17.152,26.526,39.889,26.526,64.122  c0,24.232-9.474,46.969-26.526,64.122c-17.152,17.152-39.889,26.526-64.121,26.526s-46.97-9.474-64.122-26.526  s-26.526-39.889-26.526-64.122c0-24.233,9.474-46.97,26.526-64.122c1.496-1.496,2.991-2.892,4.487-4.188l-20.742-20.742  c-1.496,1.396-2.991,2.792-4.487,4.288c-10.97,10.969-19.646,23.833-25.729,38.094c-6.283,14.759-9.474,30.515-9.474,46.67  c0,16.155,3.19,31.911,9.474,46.67c6.083,14.26,14.659,27.125,25.729,38.094c10.97,10.97,23.834,19.646,38.094,25.729  c14.759,6.283,30.516,9.474,46.67,9.474c16.155,0,31.912-3.19,46.671-9.474c14.261-6.083,27.125-14.659,38.094-25.729  c10.97-10.969,19.646-23.833,25.729-38.094c6.283-14.759,9.474-30.516,9.474-46.67c0-16.155-3.19-31.912-9.474-46.67  c-6.083-14.261-14.659-27.125-25.729-38.094c-1.495-1.496-2.991-2.892-4.487-4.288l-20.742,20.742  C367.18,242.676,368.676,244.072,370.171,245.568z"/>
<circle id="red_circle_52_" display="none" fill="#FFFFFF" cx="306.05" cy="226.521" r="37.396"/>
<path fill="#020202" d="M316.421,382.787c35.8-5.086,63.323-35.8,63.323-73.097c0-22.637-10.171-42.881-26.227-56.344  l-37.196,37.197v92.244H316.421z"/>
<path fill="#020202" d="M295.579,382.787v-92.244l-37.197-37.197c-16.056,13.563-26.227,33.806-26.227,56.344  C232.255,346.886,259.779,377.701,295.579,382.787z"/>
<path fill="#020202" d="M370.171,245.568c17.152,17.152,26.526,39.889,26.526,64.122c0,24.232-9.474,46.969-26.526,64.122  c-17.152,17.152-39.889,26.526-64.121,26.526s-46.97-9.474-64.122-26.526s-26.526-39.889-26.526-64.122  c0-24.233,9.474-46.97,26.526-64.122c1.496-1.496,2.991-2.892,4.487-4.188l-20.742-20.742c-1.496,1.396-2.991,2.792-4.487,4.288  c-10.97,10.969-19.646,23.833-25.729,38.094c-6.283,14.759-9.474,30.515-9.474,46.67c0,16.155,3.19,31.911,9.474,46.67  c6.083,14.26,14.659,27.125,25.729,38.094c10.97,10.97,23.834,19.646,38.094,25.729c14.759,6.283,30.516,9.474,46.67,9.474  c16.155,0,31.912-3.19,46.671-9.474c14.261-6.083,27.125-14.659,38.094-25.729c10.97-10.969,19.646-23.833,25.729-38.094  c6.283-14.759,9.474-30.516,9.474-46.67c0-16.155-3.19-31.912-9.474-46.67c-6.083-14.261-14.659-27.125-25.729-38.094  c-1.495-1.496-2.991-2.892-4.487-4.288l-20.742,20.742C367.18,242.676,368.676,244.072,370.171,245.568z"/>
<circle id="red_circle_46_" fill="#020202" cx="306.05" cy="226.521" r="37.396"/>
<g>
</g>
</svg>