<svg xmlns="http://www.w3.org/2000/svg" width="2000" height="1080" viewBox="0 0 2000 1080">
  <defs>
    <style>
      .cls-1 {
        fill: #fff;
        opacity: 0;
      }

      .cls-2 {
        fill: #32373c;
      }
    </style>
  </defs>
  <title>WordPress-logotype-all</title>
  <g id="Alternative">
    <rect id="Safety_Area" data-name="Safety Area" class="cls-1" width="2000" height="1080"/>
    <g id="Logotype">
      <g id="Wordmark">
        <path class="cls-2" d="M922.1,715.4h-82v8.7c25.7,0,29.8,5.5,29.8,38v58.6c0,32.5-4.1,38.5-29.8,38.5-19.7-2.8-32.9-13.3-51.2-33.5l-21.1-22.8c28.4-5.1,43.5-22.9,43.5-43.1,0-25.2-21.5-44.4-61.8-44.4H668.9v8.7c25.6,0,29.8,5.5,29.8,38v58.6c0,32.5-4.2,38.5-29.8,38.5v8.7H760v-8.7c-25.6,0-29.7-6-29.7-38.5V804.2H738l50.9,63.7H922.1c65.5,0,93.8-34.8,93.8-76.5S987.6,715.4,922.1,715.4ZM730.3,790V729.1H749c20.6,0,29.8,14.2,29.8,30.7S769.6,790,749,790Zm193.2,63.7h-3.2c-16.5,0-18.8-4.1-18.8-25.2V729.1h22c47.6,0,56.3,34.8,56.3,61.8S971.1,853.7,923.5,853.7Z"/>
        <path class="cls-2" d="M413.9,807l31.6-93.4c9.1-27,5-34.8-24.3-34.8v-9.2h86.1v9.2c-28.8,0-35.7,6.8-47.2,40.3L407.9,875.7H402L355.3,732.3,307.7,875.7h-6L250.9,719.1c-11-33.5-18.3-40.3-44.9-40.3v-9.2H307.7v9.2c-27,0-34.4,6.4-24.7,34.8L313.6,807l46.3-137.4h8.7Z"/>
        <path class="cls-2" d="M569.6,873.8c-50.4,0-91.6-37.1-91.6-82.4s41.2-82,91.6-82,91.5,37.1,91.5,82S619.9,873.8,569.6,873.8Zm0-150.2c-42.2,0-56.8,38-56.8,67.8s14.6,67.8,56.8,67.8,57.2-37.6,57.2-67.8S612.1,723.6,569.6,723.6Z"/>
        <path class="cls-2" d="M1129,858.7v9.2H1024.2v-9.2c30.7,0,36.1-7.8,36.1-53.6V731.9c0-45.8-5.4-53.1-36.1-53.1v-9.2h94.7c47.2,0,73.3,24.3,73.3,56.8s-26.1,56.3-73.3,56.3h-26v22.4C1092.9,850.9,1098.3,858.7,1129,858.7Zm-10.1-172.6h-26v79.7h26c25.7,0,37.6-17.9,37.6-39.4S1144.6,686.1,1118.9,686.1Z"/>
        <path class="cls-2" d="M1506.7,824.8l-2.3,8.3c-4.1,15.1-9.1,20.6-41.6,20.6h-6.4c-23.8,0-28-5.5-28-38V794.6c35.8,0,38.5,3.2,38.5,27h8.7V753.4h-8.7c0,23.8-2.7,27-38.5,27V729.1h25.2c32.5,0,37.6,5.5,41.7,20.6l2.3,8.7h7.3l-3.2-43H1367.1v8.7c25.6,0,29.7,5.5,29.7,38v58.6c0,29.7-3.5,37.2-23.7,38.3-19.2-2.9-32.4-13.4-50.4-33.3l-21.1-22.8c28.4-5.1,43.5-22.9,43.5-43.1,0-25.2-21.5-44.4-61.8-44.4h-80.6v8.7c25.7,0,29.8,5.5,29.8,38v58.6c0,32.5-4.1,38.5-29.8,38.5v8.7h91.1v-8.7c-25.6,0-29.7-6-29.7-38.5V804.2h7.8l50.8,63.7h188.2l2.7-43.1ZM1264.1,790V729.1h18.8c20.6,0,29.7,14.2,29.7,30.7s-9.1,30.2-29.7,30.2Z"/>
        <path class="cls-2" d="M1599.7,873.8c-18.3,0-34.4-9.6-41.2-15.6-2.3,2.3-6.4,9.2-7.4,15.6h-8.7V810.6h9.2c3.7,30.3,24.7,48.1,51.7,48.1,14.7,0,26.6-8.2,26.6-22,0-11.9-10.5-21-29.3-29.7l-26.1-12.4c-18.3-8.7-32.1-23.8-32.1-43.9,0-22,20.6-40.8,49-40.8,15.1,0,28,5.5,35.7,11.9,2.3-1.8,4.6-6.9,6-12.4h8.7v54.1h-9.6c-3.2-21.5-15.1-39.4-39.4-39.4-12.8,0-24.7,7.3-24.7,18.8s9.6,18.3,31.6,28.4l25.2,12.3c21.9,10.6,30.6,27.5,30.6,41.2C1655.5,853.7,1630.3,873.8,1599.7,873.8Z"/>
        <path class="cls-2" d="M1738.1,873.8c-18.3,0-34.3-9.6-41.2-15.6-2.3,2.3-6.4,9.2-7.3,15.6h-8.7V810.6h9.1c3.7,30.3,24.8,48.1,51.8,48.1,14.6,0,26.5-8.2,26.5-22,0-11.9-10.5-21-29.3-29.7l-26.1-12.4c-18.3-8.7-32-23.8-32-43.9,0-22,20.6-40.8,49-40.8,15.1,0,27.9,5.5,35.7,11.9,2.3-1.8,4.6-6.9,5.9-12.4h8.7v54.1h-9.6c-3.2-21.5-15.1-39.4-39.4-39.4-12.8,0-24.7,7.3-24.7,18.8s9.6,18.3,31.6,28.4l25.2,12.3c22,10.6,30.7,27.5,30.7,41.2C1794,853.7,1768.8,873.8,1738.1,873.8Z"/>
      </g>
      <g id="W_Mark-2" data-name="W Mark">
        <path class="cls-2" d="M1000,218.4a192.4,192.4,0,0,1,75.4,15.2,194.8,194.8,0,0,1,61.5,41.5,191.3,191.3,0,0,1,23.7,28.7,192,192,0,0,1,33.1,108.3,191.9,191.9,0,0,1-15.2,75.3,193.8,193.8,0,0,1-17.9,32.9,191.3,191.3,0,0,1-23.7,28.7,196.7,196.7,0,0,1-28.6,23.7,190.2,190.2,0,0,1-32.9,17.8,194.6,194.6,0,0,1-150.8,0,190.2,190.2,0,0,1-32.9-17.8A196.7,196.7,0,0,1,863.1,549a191.3,191.3,0,0,1-23.7-28.7,193.8,193.8,0,0,1-17.9-32.9,194.4,194.4,0,0,1,0-150.7,193.8,193.8,0,0,1,17.9-32.9,191.3,191.3,0,0,1,23.7-28.7,194.8,194.8,0,0,1,61.5-41.5,192.4,192.4,0,0,1,75.4-15.2m0-12.4c-113.8,0-206,92.3-206,206.1s92.2,206,206,206,206-92.2,206-206S1113.8,206,1000,206Z"/>
        <path class="cls-2" d="M828.3,412.1a171.8,171.8,0,0,0,96.8,154.5L843.2,342.2A169.8,169.8,0,0,0,828.3,412.1Zm287.6-8.7c0-21.2-7.6-35.9-14.1-47.4-8.8-14.1-16.9-26.1-16.9-40.2,0-15.8,12-30.5,28.8-30.5h2.2a171.7,171.7,0,0,0-259.4,32.4l11.1.2c17.9,0,45.8-2.2,45.8-2.2,9.2-.6,10.3,13,1.1,14.1,0,0-9.4,1.1-19.7,1.7l62.5,185.9,37.6-112.6-26.7-73.3c-9.3-.6-18.1-1.7-18.1-1.7-9.2-.5-8.1-14.7,1.1-14.1,0,0,28.4,2.2,45.3,2.2s45.7-2.2,45.7-2.2c9.3-.6,10.4,13,1.1,14.1,0,0-9.3,1.1-19.6,1.7l62,184.5,17.7-56.1C1111.3,435.5,1115.9,418.1,1115.9,403.4ZM1003,427.1,951.5,576.8A171.1,171.1,0,0,0,1057,574a16.7,16.7,0,0,1-1.2-2.3Zm147.7-97.4a138.5,138.5,0,0,1,1.1,17.6c0,17.5-3.2,37-13,61.5l-52.5,151.7a171.8,171.8,0,0,0,64.4-230.8Z"/>
      </g>
    </g>
  </g>
</svg>
