<?xml version="1.0" encoding="utf-8"?>
<!-- Generator: Adobe Illustrator 15.0.0, SVG Export Plug-In . SVG Version: 6.00 Build 0)  -->
<!DOCTYPE svg PUBLIC "-//W3C//DTD SVG 1.1//EN" "http://www.w3.org/Graphics/SVG/1.1/DTD/svg11.dtd">
<svg version="1.1" id="Layer_1" xmlns="http://www.w3.org/2000/svg" xmlns:xlink="http://www.w3.org/1999/xlink" x="0px" y="0px"
	 width="116.984px" height="127.995px" viewBox="0 0 116.984 127.995" enable-background="new 0 0 116.984 127.995"
	 xml:space="preserve">
<g>
	<g>
		<g>
			<path fill="#414042" d="M58.432,87.379c-12.788,0-23.191-10.404-23.191-23.191h8.895c0,7.883,6.413,14.297,14.296,14.297
				c7.883,0,14.295-6.414,14.295-14.297c0-6.574-5.23-11.445-15.549-14.477c-12.631-3.709-20.172-12.305-20.172-22.998
				c0-11.781,9.586-21.367,21.37-21.367c11.781,0,21.367,9.586,21.367,21.367h-8.895c0-6.877-5.596-12.471-12.473-12.471
				c-6.879,0-12.474,5.594-12.474,12.471c0,9.4,9.64,13.248,13.783,14.465c18.133,5.326,21.938,15.451,21.938,23.01
				C81.622,76.975,71.219,87.379,58.432,87.379z"/>
			<g>
				<path fill="#00AEEF" d="M104.375,42.783c-2.764-0.051-4.672-0.996-5.832-2.889c-1.201-1.955-1.811-5.635-1.811-10.938v-8.975
					c0-5.678-0.992-9.559-3.029-11.863c-2.029-2.291-5-3.455-8.83-3.455h-1.811v5.875l0.598,0.016
					c3.504,0.107,5.557,0.859,6.094,2.234c0.607,1.566,0.914,4.188,0.914,7.793v7.691c0,5.543,0.691,9.715,2.055,12.395
					c1.211,2.383,3.105,4.256,5.641,5.582c-1.639,0.916-2.951,1.939-3.908,3.051c-1.172,1.355-2.094,3.133-2.738,5.291
					c-0.641,2.135-0.963,5.414-0.963,9.75c0,5.957-0.127,10.082-0.381,12.258c-0.236,2.039-0.754,3.406-1.535,4.064
					c-0.553,0.467-1.898,1.047-5.184,1.182l-0.592,0.025v6.037h2.41c2.59,0,4.887-0.824,6.83-2.451
					c1.936-1.621,3.184-3.654,3.709-6.045c0.506-2.299,0.764-5.83,0.764-10.496v-5.768c0-3.781,0.336-6.637,1.002-8.488
					c0.652-1.795,1.512-3.076,2.557-3.809c1.062-0.738,2.428-1.156,4.059-1.236l0.588-0.027v-6.793L104.375,42.783z"/>
				<path fill="#00AEEF" d="M22.247,8.119c-2.038,2.305-3.029,6.186-3.029,11.863v8.975c0,5.303-0.609,8.982-1.812,10.938
					c-1.159,1.893-3.067,2.838-5.831,2.889l-0.604,0.012v6.793l0.587,0.027c1.631,0.08,2.996,0.498,4.058,1.236
					c1.046,0.732,1.906,2.014,2.557,3.805c0.666,1.855,1.004,4.711,1.004,8.492v5.768c0,4.666,0.257,8.197,0.762,10.496
					c0.525,2.391,1.774,4.424,3.712,6.045c1.94,1.627,4.238,2.451,6.827,2.451h2.412v-6.037l-0.592-0.025
					c-3.285-0.135-4.631-0.715-5.185-1.182c-0.781-0.658-1.298-2.025-1.535-4.064c-0.253-2.168-0.381-6.293-0.381-12.258
					c0-4.336-0.324-7.615-0.962-9.75c-0.646-2.158-1.568-3.939-2.739-5.291c-0.957-1.109-2.27-2.135-3.909-3.051
					c2.536-1.326,4.432-3.199,5.642-5.582c1.363-2.682,2.055-6.854,2.055-12.395v-7.691c0-3.605,0.307-6.227,0.912-7.789
					c0.538-1.379,2.591-2.131,6.096-2.238l0.599-0.016V4.664h-1.811C27.247,4.664,24.276,5.828,22.247,8.119z"/>
			</g>
		</g>
	</g>
	<g>
		<g>
			<path fill="#414042" d="M12.666,107.656c-0.787,0.809-1.923,1.213-3.411,1.213c-1.488,0-2.625-0.404-3.411-1.213
				c-1.055-0.994-1.582-2.426-1.582-4.293c0-1.908,0.527-3.338,1.582-4.295c0.786-0.809,1.923-1.213,3.411-1.213
				c1.487,0,2.624,0.404,3.411,1.213c1.049,0.957,1.575,2.387,1.575,4.295C14.241,105.23,13.715,106.662,12.666,107.656z
				 M11.307,106.074c0.506-0.637,0.759-1.539,0.759-2.711c0-1.168-0.253-2.07-0.759-2.709c-0.506-0.639-1.19-0.957-2.051-0.957
				s-1.549,0.318-2.062,0.953c-0.513,0.637-0.77,1.539-0.77,2.713c0,1.172,0.256,2.074,0.77,2.711
				c0.513,0.635,1.201,0.953,2.062,0.953S10.8,106.709,11.307,106.074z"/>
			<path fill="#414042" d="M23.176,104.076c-0.609,0.508-1.479,0.762-2.61,0.762h-2.167v3.742h-2.161V98.172h4.469
				c1.03,0,1.852,0.27,2.464,0.805c0.613,0.537,0.919,1.369,0.919,2.494C24.09,102.699,23.786,103.566,23.176,104.076z
				 M21.517,100.326c-0.275-0.23-0.661-0.346-1.158-0.346h-1.96v3.064h1.96c0.497,0,0.882-0.125,1.158-0.375
				s0.413-0.645,0.413-1.186S21.792,100.557,21.517,100.326z"/>
			<path fill="#414042" d="M33.821,100.016h-5.508v2.209h5.056v1.809h-5.056v2.676h5.762v1.871h-7.888V98.172h7.633V100.016z"/>
			<path fill="#414042" d="M36.024,98.172h2.28l4.132,7.258v-7.258h2.026v10.408h-2.174l-4.237-7.385v7.385h-2.026V98.172z"/>
			<path fill="#414042" d="M52.666,105.367c0.067,0.477,0.2,0.832,0.397,1.066c0.36,0.43,0.978,0.643,1.853,0.643
				c0.524,0,0.949-0.057,1.276-0.17c0.62-0.215,0.93-0.617,0.93-1.207c0-0.344-0.152-0.609-0.455-0.797
				c-0.305-0.184-0.785-0.346-1.445-0.488l-1.127-0.246c-1.107-0.246-1.868-0.512-2.282-0.799c-0.702-0.48-1.052-1.23-1.052-2.252
				c0-0.932,0.343-1.707,1.029-2.324c0.686-0.615,1.694-0.924,3.023-0.924c1.11,0,2.057,0.291,2.842,0.871
				c0.783,0.582,1.194,1.426,1.232,2.531h-2.09c-0.039-0.625-0.318-1.07-0.84-1.334c-0.348-0.174-0.78-0.262-1.296-0.262
				c-0.574,0-1.033,0.113-1.375,0.34s-0.514,0.541-0.514,0.945c0,0.373,0.169,0.65,0.507,0.834c0.217,0.123,0.678,0.266,1.383,0.43
				l1.827,0.432c0.8,0.188,1.4,0.439,1.8,0.756c0.62,0.49,0.931,1.197,0.931,2.125c0,0.951-0.367,1.74-1.104,2.369
				c-0.734,0.629-1.773,0.943-3.115,0.943c-1.37,0-2.448-0.311-3.233-0.93s-1.177-1.469-1.177-2.553H52.666z"/>
			<path fill="#414042" d="M69.049,107.656c-0.787,0.809-1.924,1.213-3.412,1.213c-1.486,0-2.623-0.404-3.41-1.213
				c-1.055-0.994-1.582-2.426-1.582-4.293c0-1.908,0.527-3.338,1.582-4.295c0.787-0.809,1.924-1.213,3.41-1.213
				c1.488,0,2.625,0.404,3.412,1.213c1.049,0.957,1.574,2.387,1.574,4.295C70.624,105.23,70.098,106.662,69.049,107.656z
				 M67.69,106.074c0.506-0.637,0.758-1.539,0.758-2.711c0-1.168-0.252-2.07-0.758-2.709c-0.508-0.639-1.191-0.957-2.053-0.957
				s-1.549,0.318-2.061,0.953c-0.514,0.637-0.77,1.539-0.77,2.713c0,1.172,0.256,2.074,0.77,2.711
				c0.512,0.635,1.199,0.953,2.061,0.953S67.182,106.709,67.69,106.074z"/>
			<path fill="#414042" d="M72.571,98.172h2.211v6.393c0,0.715,0.084,1.236,0.254,1.566c0.262,0.584,0.834,0.875,1.717,0.875
				c0.877,0,1.447-0.291,1.709-0.875c0.168-0.33,0.254-0.852,0.254-1.566v-6.393h2.209v6.398c0,1.105-0.172,1.967-0.514,2.584
				c-0.639,1.129-1.859,1.695-3.658,1.695c-1.801,0-3.023-0.566-3.666-1.695c-0.344-0.617-0.516-1.479-0.516-2.584V98.172z"/>
			<path fill="#414042" d="M89.973,98.441c0.385,0.164,0.709,0.406,0.975,0.727c0.221,0.264,0.395,0.555,0.523,0.875
				s0.193,0.686,0.193,1.096c0,0.494-0.125,0.98-0.375,1.457c-0.25,0.479-0.66,0.816-1.234,1.014
				c0.479,0.193,0.818,0.467,1.02,0.822c0.199,0.355,0.301,0.898,0.301,1.629v0.697c0,0.477,0.018,0.799,0.057,0.969
				c0.057,0.268,0.191,0.465,0.402,0.592v0.262h-2.402c-0.064-0.23-0.111-0.416-0.141-0.557c-0.057-0.293-0.088-0.592-0.092-0.898
				l-0.014-0.967c-0.01-0.664-0.123-1.105-0.344-1.326c-0.221-0.223-0.635-0.332-1.24-0.332h-2.123v4.08h-2.125V98.172h4.977
				C89.043,98.186,89.59,98.275,89.973,98.441z M85.479,99.98v2.795h2.34c0.465,0,0.814-0.055,1.047-0.168
				c0.41-0.199,0.617-0.59,0.617-1.172c0-0.631-0.199-1.055-0.598-1.271c-0.223-0.123-0.559-0.184-1.006-0.184H85.479z"/>
			<path fill="#414042" d="M95.032,99.26c0.838-0.857,1.904-1.285,3.199-1.285c1.732,0,2.998,0.574,3.801,1.723
				c0.441,0.645,0.68,1.293,0.711,1.941h-2.174c-0.139-0.498-0.316-0.875-0.533-1.129c-0.387-0.451-0.961-0.678-1.723-0.678
				c-0.773,0-1.385,0.318-1.832,0.957c-0.447,0.637-0.672,1.539-0.672,2.707s0.236,2.043,0.709,2.623
				c0.471,0.582,1.07,0.873,1.799,0.873c0.746,0,1.314-0.25,1.705-0.748c0.217-0.27,0.396-0.672,0.539-1.209h2.162
				c-0.188,1.135-0.664,2.059-1.43,2.77s-1.748,1.064-2.943,1.064c-1.482,0-2.646-0.479-3.494-1.439
				c-0.848-0.965-1.271-2.287-1.271-3.969C93.584,101.645,94.067,100.244,95.032,99.26z"/>
			<path fill="#414042" d="M112.465,100.016h-5.506v2.209h5.055v1.809h-5.055v2.676h5.762v1.871h-7.889V98.172h7.633V100.016z"/>
			<path fill="#414042" d="M14.126,123.041v-10.408h2.161v3.969h4.046v-3.969h2.161v10.408h-2.161v-4.646h-4.046v4.646H14.126z"/>
			<path fill="#414042" d="M32.598,122.117c-0.787,0.809-1.923,1.213-3.411,1.213c-1.488,0-2.625-0.404-3.411-1.213
				c-1.055-0.994-1.582-2.426-1.582-4.293c0-1.908,0.527-3.338,1.582-4.295c0.786-0.809,1.923-1.213,3.411-1.213
				c1.487,0,2.624,0.404,3.411,1.213c1.049,0.957,1.575,2.387,1.575,4.295C34.173,119.691,33.647,121.123,32.598,122.117z
				 M31.239,120.535c0.506-0.637,0.759-1.539,0.759-2.711c0-1.168-0.253-2.07-0.759-2.709c-0.506-0.639-1.19-0.957-2.051-0.957
				s-1.549,0.318-2.062,0.953c-0.513,0.637-0.77,1.539-0.77,2.713c0,1.172,0.256,2.074,0.77,2.711
				c0.513,0.635,1.201,0.953,2.062,0.953S30.732,121.17,31.239,120.535z"/>
			<path fill="#414042" d="M35.797,112.633h2.28l4.132,7.258v-7.258h2.026v10.408h-2.174l-4.237-7.385v7.385h-2.026V112.633z"/>
			<path fill="#414042" d="M53.273,115.881c-0.165-0.711-0.567-1.207-1.208-1.49c-0.357-0.154-0.755-0.232-1.193-0.232
				c-0.838,0-1.526,0.316-2.065,0.949c-0.539,0.631-0.808,1.582-0.808,2.85c0,1.277,0.292,2.182,0.875,2.713
				c0.583,0.531,1.247,0.797,1.991,0.797c0.729,0,1.328-0.209,1.793-0.629c0.466-0.418,0.753-0.967,0.861-1.645h-2.408v-1.736h4.335
				v5.584h-1.44l-0.219-1.299c-0.419,0.492-0.795,0.84-1.13,1.041c-0.574,0.352-1.28,0.527-2.118,0.527
				c-1.379,0-2.509-0.479-3.39-1.434c-0.918-0.959-1.377-2.271-1.377-3.938c0-1.684,0.464-3.033,1.391-4.051
				c0.927-1.016,2.154-1.523,3.679-1.523c1.323,0,2.386,0.336,3.188,1.006c0.802,0.67,1.263,1.508,1.38,2.51H53.273z"/>
			<path fill="#414042" d="M61.577,112.633h2.141v4.289l4.021-4.289h2.811l-4.271,4.281l4.49,6.127h-2.797l-3.207-4.543
				l-1.047,1.062v3.48h-2.141V112.633z"/>
			<path fill="#414042" d="M80,122.117c-0.787,0.809-1.924,1.213-3.41,1.213c-1.488,0-2.625-0.404-3.41-1.213
				c-1.055-0.994-1.582-2.426-1.582-4.293c0-1.908,0.527-3.338,1.582-4.295c0.785-0.809,1.922-1.213,3.41-1.213
				c1.486,0,2.623,0.404,3.41,1.213c1.051,0.957,1.574,2.387,1.574,4.295C81.575,119.691,81.051,121.123,80,122.117z
				 M78.641,120.535c0.506-0.637,0.76-1.539,0.76-2.711c0-1.168-0.254-2.07-0.76-2.709s-1.189-0.957-2.051-0.957
				s-1.549,0.318-2.062,0.953c-0.514,0.637-0.77,1.539-0.77,2.713c0,1.172,0.256,2.074,0.77,2.711
				c0.514,0.635,1.201,0.953,2.062,0.953S78.135,121.17,78.641,120.535z"/>
			<path fill="#414042" d="M83.2,112.633h2.279l4.131,7.258v-7.258h2.027v10.408h-2.174l-4.238-7.385v7.385H83.2V112.633z"/>
			<path fill="#414042" d="M100.676,115.881c-0.166-0.711-0.568-1.207-1.209-1.49c-0.357-0.154-0.756-0.232-1.193-0.232
				c-0.838,0-1.525,0.316-2.064,0.949c-0.539,0.631-0.809,1.582-0.809,2.85c0,1.277,0.291,2.182,0.875,2.713
				s1.248,0.797,1.992,0.797c0.729,0,1.326-0.209,1.793-0.629c0.467-0.418,0.754-0.967,0.861-1.645h-2.408v-1.736h4.336v5.584
				h-1.439l-0.221-1.299c-0.418,0.492-0.795,0.84-1.129,1.041c-0.574,0.352-1.281,0.527-2.119,0.527
				c-1.379,0-2.508-0.479-3.389-1.434c-0.918-0.959-1.377-2.271-1.377-3.938c0-1.684,0.463-3.033,1.391-4.051
				c0.928-1.016,2.154-1.523,3.68-1.523c1.322,0,2.385,0.336,3.188,1.006s1.264,1.508,1.381,2.51H100.676z"/>
		</g>
	</g>
</g>
</svg>
