<?xml version="1.0" encoding="utf-8"?>
<!-- Generator: Adobe Illustrator 15.0.0, SVG Export Plug-In . SVG Version: 6.00 Build 0)  -->
<!DOCTYPE svg PUBLIC "-//W3C//DTD SVG 1.1//EN" "http://www.w3.org/Graphics/SVG/1.1/DTD/svg11.dtd">
<svg version="1.1" id="Layer_1" xmlns="http://www.w3.org/2000/svg" xmlns:xlink="http://www.w3.org/1999/xlink" x="0px" y="0px"
	 width="257.282px" height="66.863px" viewBox="0 0 257.282 66.863" enable-background="new 0 0 257.282 66.863"
	 xml:space="preserve">
<g>
	<g>
		<g>
			<path fill="#414042" d="M35.972,61.15c-8.625,0-15.643-7.018-15.643-15.643h6c0,5.317,4.326,9.643,9.643,9.643
				c5.317,0,9.643-4.326,9.643-9.643c0-4.435-3.529-7.72-10.488-9.764c-8.52-2.503-13.607-8.302-13.607-15.513
				c0-7.948,6.466-14.414,14.414-14.414s14.414,6.466,14.414,14.414h-6c0-4.639-3.774-8.414-8.414-8.414
				c-4.64,0-8.414,3.774-8.414,8.414c0,6.341,6.502,8.935,9.298,9.756c12.229,3.592,14.797,10.423,14.797,15.521
				C51.614,54.132,44.597,61.15,35.972,61.15z"/>
			<g>
				<path fill="#00AEEF" d="M66.962,31.069c-1.864-0.035-3.15-0.673-3.933-1.949c-0.811-1.318-1.222-3.801-1.222-7.378v-6.053
					c0-3.83-0.668-6.448-2.043-8.002c-1.369-1.546-3.373-2.331-5.957-2.331h-1.221v3.962l0.403,0.011
					c2.364,0.071,3.749,0.579,4.111,1.507c0.409,1.057,0.616,2.824,0.616,5.255v5.19c0,3.738,0.466,6.552,1.386,8.36
					c0.816,1.607,2.095,2.871,3.806,3.764c-1.106,0.619-1.991,1.31-2.636,2.059c-0.792,0.913-1.413,2.114-1.848,3.568
					c-0.431,1.439-0.649,3.652-0.649,6.577c0,4.019-0.086,6.8-0.256,8.268c-0.16,1.375-0.51,2.297-1.037,2.742
					c-0.373,0.314-1.28,0.706-3.497,0.797l-0.399,0.016v4.074h1.626c1.746,0,3.296-0.557,4.606-1.654
					c1.305-1.094,2.147-2.465,2.502-4.078c0.341-1.55,0.514-3.932,0.514-7.079v-3.892c0-2.55,0.228-4.477,0.676-5.725
					c0.439-1.211,1.02-2.075,1.725-2.568c0.716-0.499,1.637-0.78,2.737-0.834l0.396-0.019v-4.581L66.962,31.069z"/>
				<path fill="#00AEEF" d="M11.563,7.687c-1.375,1.554-2.043,4.172-2.043,8.002v6.053c0,3.577-0.411,6.059-1.222,7.378
					c-0.782,1.276-2.069,1.914-3.933,1.949l-0.408,0.008v4.581l0.396,0.019c1.1,0.054,2.021,0.335,2.736,0.833
					c0.706,0.494,1.286,1.358,1.725,2.567c0.449,1.25,0.677,3.177,0.677,5.727v3.892c0,3.147,0.173,5.529,0.514,7.079
					c0.354,1.613,1.197,2.984,2.503,4.078c1.31,1.097,2.859,1.654,4.605,1.654h1.627v-4.074l-0.399-0.016
					c-2.216-0.091-3.124-0.482-3.497-0.797c-0.527-0.444-0.876-1.367-1.036-2.742c-0.171-1.462-0.257-4.245-0.257-8.268
					c0-2.925-0.219-5.138-0.649-6.577c-0.437-1.456-1.058-2.657-1.848-3.568c-0.646-0.749-1.531-1.44-2.637-2.059
					c1.711-0.894,2.989-2.157,3.806-3.764c0.919-1.81,1.386-4.623,1.386-8.36v-5.19c0-2.431,0.207-4.199,0.615-5.253
					c0.363-0.93,1.748-1.438,4.112-1.509l0.404-0.011V5.356h-1.221C14.936,5.356,12.933,6.141,11.563,7.687z"/>
			</g>
		</g>
	</g>
	<g>
		<g>
			<path fill="#414042" d="M87.274,28.945c-1.305,1.344-3.191,2.016-5.66,2.016s-4.355-0.672-5.66-2.016
				c-1.75-1.648-2.625-4.023-2.625-7.125c0-3.164,0.875-5.539,2.625-7.125c1.305-1.344,3.191-2.016,5.66-2.016
				s4.355,0.672,5.66,2.016c1.742,1.586,2.613,3.961,2.613,7.125C89.888,24.922,89.017,27.297,87.274,28.945z M85.019,26.32
				c0.84-1.055,1.26-2.555,1.26-4.5c0-1.938-0.42-3.436-1.26-4.494s-1.975-1.588-3.404-1.588s-2.57,0.527-3.422,1.582
				s-1.277,2.555-1.277,4.5s0.426,3.445,1.277,4.5s1.992,1.582,3.422,1.582S84.179,27.375,85.019,26.32z"/>
			<path fill="#414042" d="M104.718,23.004c-1.011,0.844-2.455,1.266-4.332,1.266H96.79v6.211h-3.586V13.207h7.417
				c1.71,0,3.073,0.445,4.09,1.336s1.525,2.27,1.525,4.137C106.235,20.719,105.729,22.16,104.718,23.004z M101.963,16.781
				c-0.457-0.383-1.098-0.574-1.921-0.574H96.79v5.086h3.253c0.823,0,1.464-0.207,1.921-0.621s0.686-1.07,0.686-1.969
				S102.42,17.164,101.963,16.781z"/>
			<path fill="#414042" d="M122.383,16.266h-9.141v3.668h8.391v3h-8.391v4.441h9.562v3.105h-13.09V13.207h12.668V16.266z"/>
			<path fill="#414042" d="M126.039,13.207h3.784l6.856,12.044V13.207h3.363V30.48h-3.608l-7.032-12.256V30.48h-3.363V13.207z"/>
			<path fill="#414042" d="M153.659,25.148c0.111,0.789,0.33,1.379,0.658,1.77c0.598,0.711,1.623,1.066,3.074,1.066
				c0.869,0,1.576-0.094,2.117-0.281c1.029-0.359,1.545-1.027,1.545-2.004c0-0.57-0.252-1.012-0.756-1.324
				c-0.506-0.305-1.305-0.574-2.398-0.809l-1.871-0.41c-1.838-0.406-3.1-0.848-3.787-1.324c-1.164-0.797-1.746-2.043-1.746-3.738
				c0-1.547,0.569-2.832,1.708-3.855c1.138-1.023,2.812-1.535,5.019-1.535c1.842,0,3.414,0.482,4.715,1.447s1.982,2.365,2.047,4.201
				h-3.469c-0.064-1.039-0.529-1.777-1.395-2.215c-0.576-0.289-1.293-0.434-2.15-0.434c-0.953,0-1.713,0.188-2.283,0.562
				c-0.568,0.375-0.852,0.898-0.852,1.57c0,0.617,0.279,1.078,0.84,1.383c0.361,0.203,1.125,0.441,2.295,0.715L160,20.648
				c1.33,0.312,2.324,0.73,2.988,1.254c1.029,0.812,1.545,1.988,1.545,3.527c0,1.578-0.611,2.889-1.83,3.932
				c-1.221,1.043-2.943,1.564-5.17,1.564c-2.275,0-4.064-0.514-5.366-1.541c-1.303-1.027-1.954-2.439-1.954-4.236H153.659z"/>
			<path fill="#414042" d="M180.846,28.945c-1.305,1.344-3.191,2.016-5.66,2.016s-4.355-0.672-5.66-2.016
				c-1.75-1.648-2.625-4.023-2.625-7.125c0-3.164,0.875-5.539,2.625-7.125c1.305-1.344,3.191-2.016,5.66-2.016
				s4.355,0.672,5.66,2.016c1.742,1.586,2.613,3.961,2.613,7.125C183.459,24.922,182.588,27.297,180.846,28.945z M178.59,26.32
				c0.84-1.055,1.26-2.555,1.26-4.5c0-1.938-0.42-3.436-1.26-4.494s-1.975-1.588-3.404-1.588s-2.57,0.527-3.422,1.582
				s-1.277,2.555-1.277,4.5s0.426,3.445,1.277,4.5s1.992,1.582,3.422,1.582S177.75,27.375,178.59,26.32z"/>
			<path fill="#414042" d="M186.694,13.207h3.668v10.609c0,1.187,0.139,2.053,0.42,2.599c0.436,0.968,1.385,1.452,2.85,1.452
				c1.455,0,2.4-0.484,2.838-1.452c0.279-0.546,0.42-1.413,0.42-2.599V13.207h3.668v10.617c0,1.836-0.285,3.266-0.854,4.289
				c-1.062,1.875-3.086,2.812-6.072,2.812c-2.988,0-5.016-0.938-6.084-2.812c-0.57-1.023-0.854-2.453-0.854-4.289V13.207z"/>
			<path fill="#414042" d="M215.575,13.652c0.635,0.273,1.174,0.676,1.617,1.207c0.365,0.438,0.654,0.922,0.867,1.453
				c0.215,0.531,0.32,1.137,0.32,1.816c0,0.82-0.207,1.627-0.621,2.42s-1.098,1.354-2.051,1.682c0.797,0.32,1.361,0.775,1.693,1.365
				s0.498,1.49,0.498,2.701v1.16c0,0.789,0.031,1.324,0.096,1.605c0.096,0.445,0.316,0.773,0.666,0.984v0.434h-3.984
				c-0.109-0.383-0.188-0.691-0.234-0.926c-0.094-0.484-0.145-0.98-0.152-1.488l-0.023-1.605c-0.014-1.102-0.205-1.836-0.57-2.203
				s-1.051-0.551-2.057-0.551h-3.525v6.773h-3.527V13.207h8.262C214.03,13.23,214.938,13.379,215.575,13.652z M208.114,16.207v4.641
				h3.885c0.771,0,1.35-0.094,1.736-0.281c0.682-0.328,1.023-0.977,1.023-1.945c0-1.047-0.33-1.75-0.99-2.109
				c-0.371-0.203-0.928-0.305-1.67-0.305H208.114z"/>
			<path fill="#414042" d="M223.967,15.012c1.391-1.422,3.162-2.133,5.311-2.133c2.875,0,4.977,0.953,6.307,2.859
				c0.734,1.07,1.127,2.145,1.182,3.223h-3.609c-0.229-0.828-0.523-1.453-0.883-1.875c-0.645-0.75-1.596-1.125-2.859-1.125
				c-1.285,0-2.301,0.529-3.043,1.588s-1.113,2.557-1.113,4.494s0.393,3.389,1.176,4.354s1.779,1.447,2.986,1.447
				c1.238,0,2.182-0.414,2.83-1.242c0.359-0.445,0.658-1.113,0.895-2.004h3.586c-0.309,1.883-1.1,3.414-2.371,4.594
				s-2.9,1.77-4.887,1.77c-2.457,0-4.389-0.797-5.795-2.391c-1.408-1.602-2.111-3.797-2.111-6.586
				C221.567,18.969,222.368,16.645,223.967,15.012z"/>
			<path fill="#414042" d="M252.903,16.266h-9.141v3.668h8.391v3h-8.391v4.441h9.562v3.105h-13.09V13.207h12.668V16.266z"/>
			<path fill="#414042" d="M73.95,54.48V37.207h3.586v6.586h6.715v-6.586h3.586V54.48h-3.586V46.77h-6.715v7.711H73.95z"/>
			<path fill="#414042" d="M104.606,52.945c-1.305,1.344-3.191,2.016-5.66,2.016s-4.355-0.672-5.66-2.016
				c-1.75-1.648-2.625-4.023-2.625-7.125c0-3.164,0.875-5.539,2.625-7.125c1.305-1.344,3.191-2.016,5.66-2.016
				s4.355,0.672,5.66,2.016c1.742,1.586,2.613,3.961,2.613,7.125C107.22,48.922,106.349,51.297,104.606,52.945z M102.351,50.32
				c0.84-1.055,1.26-2.555,1.26-4.5c0-1.938-0.42-3.436-1.26-4.494s-1.975-1.588-3.404-1.588s-2.57,0.527-3.422,1.582
				s-1.277,2.555-1.277,4.5s0.426,3.445,1.277,4.5s1.992,1.582,3.422,1.582S101.511,51.375,102.351,50.32z"/>
			<path fill="#414042" d="M109.915,37.207h3.784l6.857,12.044V37.207h3.363V54.48h-3.608l-7.032-12.256V54.48h-3.363V37.207z"/>
			<path fill="#414042" d="M138.918,42.598c-0.273-1.18-0.941-2.004-2.004-2.473c-0.594-0.258-1.254-0.387-1.98-0.387
				c-1.391,0-2.533,0.524-3.428,1.573s-1.342,2.626-1.342,4.731c0,2.121,0.484,3.622,1.453,4.503
				c0.969,0.881,2.07,1.322,3.305,1.322c1.211,0,2.203-0.347,2.977-1.042c0.773-0.695,1.25-1.605,1.43-2.731h-3.996v-2.883h7.195
				v9.27h-2.391l-0.363-2.156c-0.695,0.816-1.32,1.393-1.875,1.727c-0.953,0.583-2.125,0.875-3.516,0.875
				c-2.289,0-4.164-0.792-5.625-2.377c-1.523-1.593-2.285-3.771-2.285-6.535c0-2.795,0.769-5.036,2.308-6.722
				c1.539-1.687,3.574-2.53,6.105-2.53c2.195,0,3.959,0.557,5.291,1.67s2.096,2.502,2.291,4.166H138.918z"/>
			<path fill="#414042" d="M152.7,37.207h3.551v7.117l6.674-7.117h4.664l-7.088,7.104l7.451,10.169h-4.641l-5.322-7.54l-1.738,1.763
				v5.777H152.7V37.207z"/>
			<path fill="#414042" d="M183.274,52.945c-1.305,1.344-3.191,2.016-5.66,2.016s-4.355-0.672-5.66-2.016
				c-1.75-1.648-2.625-4.023-2.625-7.125c0-3.164,0.875-5.539,2.625-7.125c1.305-1.344,3.191-2.016,5.66-2.016
				s4.355,0.672,5.66,2.016c1.742,1.586,2.613,3.961,2.613,7.125C185.887,48.922,185.016,51.297,183.274,52.945z M181.018,50.32
				c0.84-1.055,1.26-2.555,1.26-4.5c0-1.938-0.42-3.436-1.26-4.494s-1.975-1.588-3.404-1.588s-2.57,0.527-3.422,1.582
				s-1.277,2.555-1.277,4.5s0.426,3.445,1.277,4.5s1.992,1.582,3.422,1.582S180.178,51.375,181.018,50.32z"/>
			<path fill="#414042" d="M188.583,37.207h3.785l6.855,12.044V37.207h3.363V54.48h-3.607l-7.033-12.256V54.48h-3.363V37.207z"/>
			<path fill="#414042" d="M217.586,42.598c-0.273-1.18-0.941-2.004-2.004-2.473c-0.594-0.258-1.254-0.387-1.98-0.387
				c-1.391,0-2.533,0.524-3.428,1.573s-1.342,2.626-1.342,4.731c0,2.121,0.484,3.622,1.453,4.503
				c0.969,0.881,2.07,1.322,3.305,1.322c1.211,0,2.203-0.347,2.977-1.042c0.773-0.695,1.25-1.605,1.43-2.731H214v-2.883h7.195v9.27
				h-2.391l-0.363-2.156c-0.695,0.816-1.32,1.393-1.875,1.727c-0.953,0.583-2.125,0.875-3.516,0.875
				c-2.289,0-4.164-0.792-5.625-2.377c-1.523-1.593-2.285-3.771-2.285-6.535c0-2.795,0.77-5.036,2.309-6.722
				c1.539-1.687,3.574-2.53,6.105-2.53c2.195,0,3.959,0.557,5.291,1.67s2.096,2.502,2.291,4.166H217.586z"/>
		</g>
	</g>
</g>
</svg>
