<?xml version="1.0" encoding="utf-8"?>
<!-- Generator: $$$/GeneralStr/196=Adobe Illustrator 27.6.0, SVG Export Plug-In . SVG Version: 6.00 Build 0)  -->
<svg version="1.1" id="svg" xmlns="http://www.w3.org/2000/svg" xmlns:xlink="http://www.w3.org/1999/xlink" x="0px" y="0px"
	 viewBox="0 0 400 395.8" style="enable-background:new 0 0 400 395.8;" xml:space="preserve">
<style type="text/css">
	.st0{fill-rule:evenodd;clip-rule:evenodd;fill:#0589A4;}
	.st1{fill-rule:evenodd;clip-rule:evenodd;fill:#54AF04;}
	.st2{fill-rule:evenodd;clip-rule:evenodd;fill:#9AD8DA;}
	.st3{fill-rule:evenodd;clip-rule:evenodd;fill:#97C259;}
</style>
<g id="svgg">
	<path id="path0" class="st0" d="M196.8,12.9c-0.1,0.1-1,0.4-2,0.6c-6,1.3-11.2,6.2-13.4,12.5c-1.6,4.7-0.8,13.5,1.4,16
		c0.3,0.3,0.6,0.8,0.6,1.1c0,1.1,5.2,5.7,8,7c6.3,3,15.7,2.1,20.5-2c0.6-0.5,1.2-1,1.4-1.1c0.5-0.2,3.1-3.6,3.8-5.1
		c3.3-6.5,3-14.6-0.6-20.1c-0.6-0.9-1.1-1.8-1.1-2c0-0.4-2.2-2.4-2.6-2.4c-0.2,0-0.7-0.4-1.2-0.8C209.5,14.2,198.2,11.4,196.8,12.9
		 M11.5,74.5c-3.7,1.2-8.3,4.9-10.8,8.6c-0.9,1.4-1,17.8-0.1,19.9c3.1,7.3,15.5,11.9,23.6,8.7c5.6-2.2,10.6-7.1,11.7-11.5
		c0.1-0.6,0.5-1.3,0.7-1.7c0.8-1,0.6-9.8-0.3-12.1C32.5,76.7,21.5,71.4,11.5,74.5 M376.2,74.5c-4.4,1.4-10,6.4-11.6,10.2
		c-0.4,1-0.9,2.2-1.2,2.7c-0.8,1.6-0.6,11.1,0.3,12.3c0.4,0.5,0.7,1.2,0.7,1.5c0,0.7,1.6,3.2,3.4,5.2c7.5,8.5,21.9,8.5,29.5-0.1
		c2.7-3.1,2.8-3.5,2.8-13.3c0-10,0-9.8-3.6-13.3C390.5,74,383.6,72.2,376.2,74.5 M130.7,92.3c-1.9,0.2-3.9,0.5-4.6,0.7
		c-0.7,0.2-1.9,0.5-2.8,0.7c-0.9,0.2-1.8,0.4-2,0.6c-0.2,0.2-1.1,0.4-2,0.6c-0.9,0.2-1.8,0.4-2,0.6c-0.2,0.2-0.9,0.4-1.6,0.6
		c-3,0.7-12.2,4.9-16.4,7.6c-1.2,0.7-2.4,1.5-2.8,1.6c-1,0.5-4.9,3.4-5.3,4c-0.2,0.3-0.6,0.5-0.9,0.5c-0.7,0-13.6,12.8-13.6,13.6
		c0,0.3-0.3,0.8-0.7,1.2c-0.4,0.4-1.1,1.2-1.6,2c-1.7,2.4-3.6,5.5-3.6,5.8c0,0.1-0.4,0.8-0.9,1.5c-0.8,1.1-2.8,5.1-4.4,8.6
		c-0.6,1.5-3.4,9.6-4.2,12.4c-0.9,3-1.7,7.5-1.9,10.8l-0.2,3.3h13.1c14.9,0,13.6,0.3,14.1-3.8c0.1-1.3,0.5-3.1,0.8-4
		c0.3-0.9,0.8-2.3,1-3.2c1-3.1,3.5-8.7,4.8-10.8c0.6-0.9,1.1-1.8,1.1-1.9c0-0.1,0.5-0.9,1.2-1.7c0.7-0.8,1.2-1.6,1.2-1.8
		c0-0.7,9.5-10.5,10.2-10.5c0.3,0,0.6-0.2,0.7-0.5c0.2-0.5,3.1-2.6,6.9-5c1.4-0.9,4.2-2.2,6.3-3c1-0.4,2.3-0.9,3-1.2
		c0.7-0.3,1.7-0.7,2.4-0.8c0.7-0.1,1.6-0.4,2.2-0.6c1.2-0.4,4.5-1.1,7.3-1.4c4-0.5,129-0.3,130.7,0.2c0.9,0.3,2.5,0.7,3.6,0.9
		c3.8,0.9,5.2,1.2,6.3,1.8c2.5,1.2,4.2,1.8,4.6,1.8c3.2,0,20.2,13.7,22.6,18.4c0.3,0.6,1.2,2,2,3.2c1.7,2.6,4.2,7.5,5.2,10.2
		c0.3,1,0.8,2.2,1,2.6c0.4,0.8,1.1,3.5,1.7,7c0.2,1.3,0.6,2.8,0.7,3.3l0.3,0.9h13.1h13.1l-0.3-3.8c-0.1-2.1-0.4-4-0.6-4.3
		c-0.2-0.2-0.5-1.6-0.6-3c-0.2-1.4-0.4-2.8-0.6-3c-0.2-0.2-0.5-1.2-0.7-2.2c-1.7-7.8-8.5-21.5-14.4-28.6c-4.3-5.3-13.1-14.1-14-14.1
		c-0.2,0-0.6-0.3-0.9-0.6c-1-0.9-4.5-3.6-5.2-3.9c-0.3-0.1-1.6-0.9-2.8-1.6c-4.3-2.7-13.4-6.9-16.4-7.6c-0.7-0.1-1.4-0.4-1.6-0.6
		c-0.2-0.2-1-0.4-1.8-0.6s-1.7-0.4-2.2-0.6c-0.8-0.3-2.4-0.7-6.7-1.7C269.5,92.1,135.8,91.8,130.7,92.3 M136.8,156.2
		c-6.3,2.1-11,7-13,13.5c-0.8,2.6-0.7,10,0.1,11.5c0.2,0.4,0.8,1.7,1.3,2.9c0.5,1.1,1.2,2.4,1.6,2.7c0.4,0.4,0.7,0.9,0.7,1.1
		c0,1,6.5,5.8,7.9,5.8c0.4,0,1.2,0.3,1.8,0.6c1.4,0.8,9.4,1,10.9,0.3c0.5-0.2,2.2-1,3.8-1.7c1.9-0.9,3.6-2,5.1-3.6
		c2.5-2.5,3-3.2,4.6-6.9c1.1-2.4,1.9-9.1,1.2-9.8c-0.2-0.2-0.4-0.9-0.4-1.6c0-4.5-5.6-11.5-11.3-14.2
		C148.7,155.7,139.6,155.3,136.8,156.2 M251.5,156.1c-5.8,1.6-11.3,7.2-13.3,13.5c-0.8,2.6-0.7,10,0.1,11.5c0.2,0.4,0.8,1.7,1.3,2.9
		c0.5,1.1,1.2,2.4,1.6,2.7c0.4,0.4,0.7,0.9,0.7,1.1c0,0.5,2.4,3,2.9,3c0.1,0,1.1,0.6,2.2,1.4c1.1,0.7,2.6,1.5,3.3,1.6
		c0.7,0.2,1.5,0.5,1.8,0.7c1,0.8,9.1,0.5,11.4-0.3c7.2-2.8,11.8-7.8,13.3-14.4c2.3-10.4-3.9-21.2-13.6-23.7
		C261.2,155.6,253.4,155.6,251.5,156.1 M59.6,182.2c-0.3,0.5,0.2,7.6,0.6,8.1c0.2,0.2,0.4,1.4,0.6,2.7c0.2,1.2,0.4,2.4,0.6,2.5
		c0.2,0.1,0.4,0.5,0.4,0.9c0,1.2,1.6,6.1,3.5,10.9c2.4,5.9,8.2,15.6,12.2,20.5c4.1,4.9,14.6,14.9,15.8,14.9c0.1,0,1,0.6,1.9,1.3
		c1.8,1.4,2.1,1.6,5.4,3.5c4,2.3,11.5,5.9,12.3,5.9c0.2,0,1,0.3,1.7,0.6c1.8,0.8,6.5,2.1,8.7,2.4c1,0.1,2,0.4,2.1,0.6
		c0.1,0.2,1.8,0.4,3.7,0.6c1.9,0.2,3.7,0.5,4,0.7c0.4,0.3,15.5,0.5,56.1,0.6c30.6,0.1,55.6,0.2,55.6,0.3c0,0.2-1.7,3.5-3,5.5
		c-0.5,0.9-1.2,2-1.5,2.6c-0.3,0.5-1,1.6-1.6,2.4c-0.6,0.8-1.1,1.6-1.1,1.7c0,0.4-2,3.4-3.4,5.2c-0.7,0.9-1.5,2-1.8,2.6
		c-0.8,1.5-3.3,4.7-6.6,8.6c-2.1,2.4-2.8,3.5-2.5,3.8c0.3,0.3,0.6,0.3,0.9,0c0.3-0.2,1.3-0.6,2.3-0.8c3-0.7,6.9-1.8,7.3-2.1
		c0.2-0.1,1-0.4,1.7-0.5c0.7-0.2,1.8-0.5,2.4-0.8c0.6-0.3,1.4-0.6,1.7-0.6c0.4,0,0.8-0.2,0.9-0.4c0.1-0.2,0.8-0.5,1.5-0.6
		c0.7-0.2,1.7-0.5,2.3-0.8c0.5-0.3,1.8-0.8,2.8-1.2c1-0.4,2.4-1,3.2-1.4c0.8-0.4,1.6-0.8,1.8-0.8c0.6,0,5.9-2.5,12.2-5.7
		c7.3-3.7,8.9-4.6,15.3-8.5c3.4-2.1,3.6-2.2,5.1-3.4c0.8-0.6,1.6-1.1,1.7-1.1s1.1-0.6,2-1.4c0.9-0.8,1.8-1.4,2-1.4
		c0.3,0,4.1-3.1,5.7-4.6c0.3-0.3,0.8-0.6,1-0.6c0.2,0,2.6-2.1,5.4-4.8s5.2-4.8,5.4-4.8c0.2,0,0.7-0.5,1.1-1.1c0.4-0.6,2.5-3,4.6-5.2
		c2.2-2.3,4.2-4.6,4.6-5.1c0.3-0.5,1.6-2.2,2.7-3.6c1.1-1.4,2.1-2.8,2.1-2.9c0-0.2,0.5-1,1.2-1.8c0.7-0.8,1.2-1.6,1.2-1.7
		s1-1.7,2.2-3.5c2.9-4.3,6.4-11.4,8.3-16.8c0.4-1.1,0.8-2.2,1-2.4c0.1-0.2,0.5-1.6,0.8-3c0.3-1.4,0.7-2.8,0.8-3
		c0.2-0.2,0.4-1.4,0.6-2.6c0.2-1.2,0.4-2.4,0.6-2.6c0.2-0.2,0.4-2.2,0.4-4.4l0.1-3.9l-12.8-0.1c-14.7-0.1-13.7-0.4-14.1,3.7
		c-0.2,1.6-0.4,3-0.6,3.2c-0.2,0.1-0.5,1-0.6,1.9s-0.4,1.9-0.6,2.3c-0.2,0.3-0.7,1.6-1.2,2.8c-1.5,3.8-4.1,8.9-5.2,10.4
		c-0.6,0.8-1.1,1.6-1.1,1.8c0,0.2-1.2,1.7-2.7,3.3c-1.5,1.6-2.9,3.3-3.1,3.7c-0.2,0.4-0.8,0.9-1.2,1.2c-0.4,0.2-2,1.5-3.5,2.9
		c-1.5,1.4-3,2.5-3.3,2.5s-0.6,0.2-0.8,0.5c-0.6,0.9-4.4,3-12,6.6c-0.3,0.2-1.2,0.4-2,0.6c-0.8,0.2-1.9,0.5-2.6,0.8
		c-1.2,0.5-3.7,1.1-8.4,1.8c-3.6,0.6-130.9,0.3-131.7-0.3c-0.3-0.2-1.6-0.6-2.9-0.7c-1.3-0.2-2.6-0.4-2.8-0.6
		c-0.2-0.2-1.2-0.5-2.2-0.8c-5-1.3-14.3-6.3-18.5-10.1c-1.3-1.1-3-2.6-3.8-3.2c-0.8-0.6-1.6-1.4-1.8-1.8c-0.1-0.4-1.1-1.6-2.1-2.7
		c-2.8-3.1-5-6.5-7.4-11.4c-1.9-3.8-2.7-5.8-4.4-11.5c-0.2-0.7-0.5-2.2-0.6-3.4c-0.5-3.9,0.8-3.6-13.8-3.6
		C64,181.8,59.8,181.9,59.6,182.2 M14.7,236.4c-0.3,0.2-1.3,0.5-2.2,0.6c-3.7,0.6-10,5.3-11.7,8.9c-0.9,1.9-1,19.1-0.1,19.8
		c0.3,0.3,0.6,0.7,0.6,1c0,0.5,4.8,5.4,5.3,5.4c0.2,0,0.8,0.3,1.3,0.8c2.6,2,13.1,3.1,16.2,1.7c6.8-3.1,9.6-6,12.3-12.3
		c0.9-2.1,1.1-10.3,0.3-11.9c-0.2-0.5-1-2.2-1.7-3.7c-1.3-2.7-3.7-5.8-5.4-6.7c-3.8-2.1-5.2-2.7-7-3.1
		C19.7,236.2,15.4,236,14.7,236.4 M379.4,236.4c-0.3,0.2-1.4,0.5-2.3,0.6c-2.4,0.4-6.7,2.8-8.7,4.9c-2.1,2.3-4,5-4,5.7
		c0,0.3-0.3,1.1-0.7,1.7c-1.7,2.9-0.7,12.9,1.5,16.1c0.4,0.6,0.8,1.2,0.8,1.4c0,0.5,4.4,4.8,5.6,5.5c0.9,0.5,2.5,1.3,4.7,2.3
		c0.5,0.3,3.2,0.4,6.2,0.4c3,0,5.6-0.2,6.2-0.4c10.2-4.7,11.4-6.8,11.4-19v-8.7l-1.1-1.6c-3.1-4.6-7-7.4-11.6-8.4
		C384.4,236.2,380.1,235.9,379.4,236.4 M92.3,349.3V379h7.7h7.7l0-13c0-14.3,0-14.2,2.6-16c2-1.3,3.6-1,5.5,1
		c2.1,2.2,2.2,2.9,2.2,17.3V379h7.5h7.5l-0.1-15.9c-0.1-14.4-0.2-16-0.8-16.9c-0.4-0.5-0.7-1.3-0.7-1.6c0-0.9-4.5-5.8-5.7-6.1
		c-0.5-0.1-1-0.5-1.2-0.7c-0.2-0.3-2.1-0.4-5.5-0.4c-5.6,0-5.6,0-9.6,2.6c-0.7,0.4-1.3,0.8-1.5,0.8c-0.2,0-0.3-4.7-0.3-10.5v-10.5
		H100h-7.7V349.3 M67.3,321.5c-1.6,0.1-3.1,0.3-3.4,0.5c-0.2,0.2-1.2,0.5-2.2,0.6c-2,0.3-2.1,0.3-6.9,2.6
		c-6.7,3.2-12.9,10.7-14.1,17.3c-0.2,1.2-0.6,2.6-0.8,3c-0.6,1.3-0.2,12.3,0.6,15c0.6,2.2,2.4,6.1,4,8.7c2.2,3.6,9.3,8.3,14.3,9.6
		c5.5,1.4,19.4,1.8,20.9,0.6c0.3-0.2,1.3-0.5,2.4-0.7c2.4-0.3,3-1,2.4-2.7c-0.2-0.7-0.7-3-0.9-5.2c-0.5-4.2-1.3-6-2.4-5
		c-0.3,0.2-1.8,0.6-3.3,0.7c-1.5,0.1-3,0.4-3.2,0.7c-1.1,0.8-8.7-0.6-10.9-2c-0.9-0.6-2.1-1.4-2.7-1.7c-1.5-0.9-3.9-5-4.2-7.2
		c-0.2-1-0.4-2-0.6-2.1c-0.4-0.3-0.4-6.8,0-7.1c0.2-0.1,0.5-0.9,0.6-1.8c1.3-8.2,12.9-13.1,23.3-9.7c2.8,0.9,2.8,0.9,3.4-3.1
		c0.3-1.7,0.6-3.3,0.8-3.6c0.2-0.2,0.4-1.1,0.6-2c0.1-0.9,0.4-1.9,0.5-2.2c0.2-0.8-1.7-1.8-4-2.2c-0.9-0.1-2-0.4-2.4-0.6
		C78.1,321.6,71.7,321.3,67.3,321.5 M248.9,321.9c-0.1,0.2-2.7,0.4-5.8,0.6c-3.1,0.1-5.7,0.3-6,0.5c-0.3,0.2-0.4,10.1-0.4,28.1V379
		h1c0.5,0,1.1,0.2,1.2,0.3c1,1.6,29.1,0.3,30.9-1.5c0.2-0.2,0.7-0.4,1-0.4c5.2,0,11-7.9,11-15c0-4.2-0.1-4.6-2-7.9
		c-1-1.8-3.2-3.7-5.5-4.7c-2.7-1.2-2.7-1.3-1-2.1c2.9-1.4,6.2-5.5,6.2-7.7c0-0.4,0.2-1,0.4-1.2c0.5-0.5,0.3-2.8-0.5-5.9
		c-1.4-5.7-7.5-9.9-15.3-10.4c-1.6-0.1-3-0.4-3.1-0.5C260.9,321.5,249.2,321.5,248.9,321.9 M201.6,326.4c-1.2,0.2-2.5,0.5-3,0.7
		c-0.4,0.2-1.7,0.5-2.9,0.6c-1.1,0.1-2.2,0.4-2.3,0.6s-0.7,0.4-1.4,0.4c-2.9,0-3.2,0.4-3.2,4.7v4h-2.4h-2.4v5.9v5.9h2.4h2.4l0.1,9.4
		c0.3,17.9,2.8,21.3,16,21.3c8.2,0,7.7,0.5,7.7-6.8v-5.7h-2.6c-5.1,0-5.7-1.2-5.7-11.4l0-6.8l4.1-0.1l4.1-0.1v-5.7v-5.7l-4.1-0.1
		l-4.1-0.1v-5.5C204.4,325.7,204.5,326,201.6,326.4 M353.5,326.5c-1.3,0.2-2.6,0.6-2.8,0.7c-0.2,0.1-1.4,0.4-2.6,0.5
		c-1.2,0.2-2.4,0.4-2.6,0.6c-0.2,0.2-1.2,0.4-2.3,0.6l-1.9,0.3v4.1v4.1l-2.5,0.1l-2.5,0.1v5.7v5.7l2.4,0.2l2.4,0.2l0.2,10.5
		c0.1,6.4,0.4,10.8,0.6,11.1c0.2,0.3,0.6,1.3,0.9,2.1c1.6,4.9,5.6,6.7,14.4,6.7c8,0,7.4,0.6,7.4-6.8l0-5.6h-2.3c-5.2,0-6-1.4-6-11.2
		l0-7h4.2h4.2v-5.9v-5.9h-4.2h-4.2v-5.7c0-3.2-0.1-5.7-0.3-5.7C356,326,354.8,326.2,353.5,326.5 M261.7,334.3c3.9,2,3.5,6.5-0.8,8.8
		c-2,1-8.1,1.5-8.6,0.7c-0.4-0.6-0.4-7.8-0.1-9.4C252.5,333.1,259.3,333,261.7,334.3 M151.6,337.3c-0.8,0.1-1.5,0.3-1.5,0.5
		c0,0.2-0.8,0.4-1.7,0.5c-4.6,0.6-5.9,1.9-5.1,5c2,8,1.7,7.5,4.5,6.2c4.9-2.4,14.1-2.6,15.4-0.2c0.8,1.4,0.5,1.6-2.8,1.6
		c-1.7,0-3.2,0.2-3.4,0.3c-0.1,0.2-1.3,0.4-2.6,0.6c-1.3,0.1-3,0.5-3.9,0.9c-0.8,0.4-2.3,1-3.2,1.4c-3.4,1.5-6.5,5.6-7.2,9.4
		c-0.2,1-0.5,2.3-0.6,2.9c-0.1,0.6-0.1,1.5,0.2,2c0.2,0.5,0.5,1.7,0.7,2.7c0.3,2.1,2.5,5.4,4.4,6.5c3.8,2.3,3.7,2.3,9.2,2.3
		c3.7,0,5.4-0.1,5.7-0.5c0.3-0.3,0.8-0.5,1.1-0.5c0.3,0,1.4-0.5,2.4-1.2c2.2-1.5,2.3-1.5,2.6,0l0.2,1.2h6.9h6.9l-0.1-8.2
		c-0.3-18.7-0.4-21.7-0.8-22.5c-0.2-0.4-0.9-1.8-1.4-3c-1.2-2.6-4.1-5.4-6.6-6.5c-1-0.4-2.1-0.9-2.6-1.2
		C167.3,337.2,154.7,336.9,151.6,337.3 M304,337.3c-1,0.2-1.6,0.5-4.9,2c-5.2,2.3-9.6,7.9-10.7,13.8c-0.7,3.4-0.9,8.5-0.4,9.5
		c0.2,0.5,0.5,1.5,0.6,2.4c0.5,3.3,5.8,11.3,7.5,11.3c0.2,0,0.9,0.4,1.6,0.9c0.7,0.5,2,1.2,2.8,1.4c0.9,0.3,2,0.7,2.5,0.9
		c1.4,0.7,13,0.6,14.7-0.1c7.5-3,12.4-7.7,13.7-13.3c0.2-0.7,0.5-1.4,0.7-1.7c0.6-0.7,0.6-11.3,0-12c-0.2-0.3-0.6-1.1-0.7-1.7
		c-0.4-1.7-2.1-5.1-2.8-5.8c-0.4-0.3-0.8-1-1-1.5c-0.2-0.5-0.8-1.1-1.2-1.3c-0.5-0.2-1.8-1.1-2.9-2s-2.5-1.7-3.2-1.8
		c-0.7-0.1-1.4-0.5-1.8-0.7C317.9,337.2,305.6,336.9,304,337.3 M313.5,349.4c3.5,3.8,4,11.8,1,17.3c-0.6,1.2-2.9,2.4-4.5,2.4
		c-4.5,0-7.2-8.1-5.4-15.8C305.7,348.6,310.8,346.4,313.5,349.4 M261,356c6.3,1.7,5.5,11.9-0.9,11.9c-0.6,0-1.1,0.2-1.3,0.4
		c-0.5,0.8-6.1,0.5-6.5-0.4c-0.4-0.7-0.5-10.8-0.1-11.8C252.4,355.5,258.9,355.5,261,356 M163.7,360.6c0.5,0.2,0.6,0.8,0.6,2.5
		c0,4.7-5.2,7.9-8.1,5.1c-2.5-2.3-0.1-7.1,3.5-7.1c0.6,0,1.1-0.2,1.3-0.4C161.3,360.4,162.8,360.3,163.7,360.6"/>
	<path id="path2" class="st1" d="M97.6,0.6c-10.4,5.4-5.8,22.6,5.7,21.4c7.6-0.8,13.3-8.5,10.6-14.3c-0.4-0.7-0.6-1.5-0.6-1.6
		C113.3,1.8,102.7-2,97.6,0.6 M290.6,1.3c-3.7,2.5-6,8.5-4.6,12.1c2.1,5.4,2.7,6,7,8c3.6,1.7,10.1,0.2,12.6-2.8
		c4.1-5,3.9-11.3-0.6-15.9C302-0.5,294.3-1.3,290.6,1.3"/>
	<path id="path3" class="st2" d="M91.2,10.7c0,1.9,0.1,2.6,0.2,1.7c0.1-0.9,0.1-2.4,0-3.4C91.3,8.1,91.2,8.8,91.2,10.7 M308.7,10.7
		c0,1.9,0.1,2.6,0.2,1.7c0.1-0.9,0.1-2.4,0-3.4C308.7,8.1,308.7,8.8,308.7,10.7 M194.1,13.2c-12.8,4.3-18.1,18.8-11,30.2
		c1.4,2.3,3.4,4.6,4.1,4.6c0.2,0,0.8,0.3,1.1,0.7c3.4,3.8,14.7,5,20.2,2.2c4.6-2.4,7.2-5.1,9.8-10c1.8-3.5,2.2-11.6,0.8-14.8
		c-0.5-1-0.8-2-0.8-2.2c0-0.8-3.4-5.2-5.1-6.6C207.8,12.7,200.3,11.1,194.1,13.2 M205.1,13.4c2.5,0.7,5.6,2.2,6.5,3.2
		c0.4,0.5,0.9,0.8,1.2,0.8c0.5,0,2.6,2,2.6,2.4c0,0.2,0.5,1.1,1.1,2c3.6,5.5,3.9,13.7,0.6,20.1c-0.7,1.4-3.3,4.8-3.8,5.1
		c-0.2,0.1-0.8,0.6-1.4,1.1c-4.9,4.1-14.2,5-20.5,2c-2.8-1.3-8-5.9-8-7c0-0.3-0.3-0.8-0.6-1.1c-2.2-2.5-3-11.3-1.4-16
		c2.1-6.3,7.4-11.2,13.4-12.5c0.9-0.2,1.8-0.5,2-0.6C197.1,12.5,203.1,12.9,205.1,13.4 M106.9,21.7c-1.5,0.3-1.8,0.8-0.4,0.6
		c0.7-0.1,1.3-0.3,1.4-0.5c0.1-0.2,0.2-0.3,0.1-0.3C108,21.5,107.5,21.6,106.9,21.7 M13.6,73.6c-0.3,0.2,1.6,0.3,4,0.3
		c2.5,0,4.4-0.1,4.3-0.3C21.7,73.2,14.2,73.2,13.6,73.6 M378.4,73.6c-0.3,0.2,1.6,0.3,4,0.3c2.5,0,4.4-0.1,4.3-0.3
		C386.4,73.2,379,73.2,378.4,73.6 M10.3,74.4c-3.4,1-11.2,8.3-10.1,9.4c0.1,0.1,0.2,0,0.2-0.2c0-1.6,7.2-7.8,10.3-8.9
		C12.5,74.1,12.2,73.9,10.3,74.4 M23,74.2c0,0.1,0.8,0.4,1.7,0.7c4.2,1.1,9.7,6.6,11.6,11.7c0.9,2.3,1.1,11.1,0.3,12.1
		c-0.2,0.3-0.6,1.1-0.7,1.7c-1,4.4-6.1,9.3-11.7,11.5c-8.1,3.1-20.4-1.4-23.6-8.6c-0.3-0.7-0.5-0.9-0.6-0.6c-0.1,1.9,5.3,7,9.4,9
		c3,1.4,3.1,1.4,8.2,1.4h5.2l3.3-1.7c14.8-7.5,15.4-28.6,0.9-36C25.5,74.5,23,73.8,23,74.2 M375.4,74.3c-3.7,1.2-9.9,6.7-11.2,10
		c-0.4,1-0.9,2.2-1.2,2.7c-1.1,2.4-0.5,11.5,0.9,14.4c6.7,13.8,25.2,15.9,34.4,3.9c0.9-1.2,1.6-2.4,1.6-2.8c0-0.4-0.3-0.1-0.6,0.6
		c-4,9.2-18.5,12.5-28,6.4c-2.9-1.9-7.1-6.7-7.1-8.3c0-0.3-0.3-0.9-0.7-1.5c-0.8-1.2-1-10.7-0.3-12.3c0.2-0.5,0.8-1.8,1.2-2.7
		c1.5-3.5,7.4-9,10.8-9.9c0.9-0.2,1.7-0.5,1.7-0.6C377,74,376.2,74.1,375.4,74.3 M389.3,74.7c2.3,0.8,3.9,1.9,6.8,4.7
		c1.3,1.2,2.4,2.2,2.5,2.1c0.8-0.8-7.2-6.7-9.8-7.2C387.7,74.1,387.8,74.2,389.3,74.7 M398.8,82.2c0,0.7,1.2,1.9,1.2,1.3
		c0-0.3-0.3-0.8-0.6-1.1C399.1,82.1,398.8,82,398.8,82.2 M130.5,91.9c-1.7,0.2-3.8,0.5-4.6,0.7c-0.8,0.2-2.1,0.6-3,0.8
		c-4.1,0.9-6.6,1.6-7.2,2c-0.4,0.2-1.6,0.7-2.7,1c-2.5,0.9-6.1,2.5-6.1,2.7c0,0.2,1.4-0.3,2.6-0.9c1.2-0.6,5-2,6.3-2.3
		c0.7-0.1,1.4-0.4,1.6-0.6c0.2-0.2,1-0.4,1.8-0.6s1.7-0.4,2.2-0.6c0.8-0.4,3.2-0.9,7.1-1.7c3.4-0.7,139.6-0.7,143,0
		c3.9,0.8,6.3,1.3,7.1,1.7c0.4,0.2,1.4,0.5,2.2,0.6s1.6,0.4,1.8,0.6c0.2,0.2,0.9,0.4,1.6,0.6c1.3,0.3,5.2,1.7,6.3,2.3
		c1.1,0.6,2.6,1.1,2.6,0.9c0-0.2-0.9-0.6-5.3-2.6c-1.7-0.8-6.9-2.3-9.7-3c-1.6-0.4-3.4-0.8-4-1c-2.9-1-11.8-1.2-74.8-1.1
		C163.2,91.6,132.2,91.7,130.5,91.9 M102.8,101.1c-3.9,2-9.3,5.5-9.3,6c0,0.2,0.6-0.1,1.3-0.6c0.7-0.5,1.6-1.1,2-1.3
		c0.4-0.2,1.7-1,3-1.8c1.3-0.8,3.3-1.9,4.6-2.5c2.1-1,2.8-1.5,2-1.5C106.1,99.4,104.5,100.2,102.8,101.1 M293.5,99.6
		c0,0.1,1.1,0.7,2.5,1.4c1.4,0.7,3.5,1.8,4.7,2.6s2.4,1.5,2.8,1.6c0.7,0.3,4.2,3,5.2,3.9c0.3,0.3,0.8,0.6,0.9,0.6
		c0.9,0,9.7,8.8,14,14.1c5.8,7.1,12.7,20.8,14.4,28.6c0.2,1,0.5,1.9,0.7,2.2c0.2,0.2,0.5,1.6,0.6,3.1c0.2,1.5,0.4,2.8,0.6,2.9
		c0.2,0.1,0.3-0.2,0.2-0.7c-0.1-0.5-0.4-1.9-0.6-3.1c-0.4-2.4-1.5-6.5-2-7.7c-0.2-0.4-0.7-1.9-1.2-3.2c-1-2.6-1-2.8-2.6-6.3
		c-4.9-11.2-14.4-23-24.9-31c-0.9-0.7-1.9-1.5-2.2-1.8c-0.3-0.3-0.8-0.6-0.9-0.6c-0.2,0-1-0.5-1.8-1.2
		C301.6,103.3,293.5,99,293.5,99.6 M89.8,109.6c-3.6,3-10.6,9.7-10.6,10.1c0,0.2-1,1.4-2.2,2.8c-1.2,1.3-2.2,2.6-2.2,2.8
		c0,0.2-0.4,0.8-1,1.4c-1.5,1.6-6.4,9.8-6,10.2c0.1,0.1,0.4-0.3,0.7-0.9c0.3-0.6,0.9-1.7,1.4-2.4c0.5-0.7,0.9-1.3,0.9-1.5
		c0-0.2,2-3.4,3.6-5.8c0.5-0.7,1.2-1.6,1.6-2c0.4-0.4,0.7-0.9,0.7-1.2c0-0.7,12.9-13.6,13.5-13.6c0.3,0,1-0.5,1.7-1.2
		C93.9,106.6,92.7,107.2,89.8,109.6 M137.1,118.4c-0.5,0.2-1.3,0.3-1.7,0.2c-0.4-0.1-1.3-0.1-2,0.2c-0.7,0.2-2.2,0.6-3.3,0.8
		c-3.8,0.8-5.2,1.2-6.3,1.8c-0.7,0.3-2,0.8-3,1.2c-2.1,0.8-5,2.1-6.3,3c-3.7,2.4-6.7,4.5-6.9,5c-0.1,0.3-0.4,0.5-0.7,0.5
		c-0.7,0-10.2,9.8-10.2,10.5c0,0.2-0.5,1-1.2,1.8c-0.7,0.8-1.2,1.6-1.2,1.8c0,0.2-0.3,0.6-0.6,0.9c-0.7,0.8-3.8,7-3.8,7.6
		c0,0.3,0.9-1.2,1.9-3.3c1-2.1,2.4-4.5,3-5.2c0.6-0.8,1.1-1.5,1.1-1.6c0-2.3,16.2-17.2,18.6-17.2c0.2,0,0.4-0.1,0.4-0.3
		c0-0.3,2.9-1.7,6.1-3c0.7-0.3,1.8-0.8,2.6-1.1c0.8-0.4,2-0.8,2.8-0.9c0.8-0.1,2.2-0.5,3.2-0.8c4.5-1.4,7.5-1.5,70.5-1.5
		c41.8,0,63,0.1,65,0.4c3.7,0.5,9.6,1.9,11.3,2.7c0.7,0.3,1.9,0.8,2.6,1.1c4.5,1.9,10,5,13.1,7.6c3.8,3.1,12.1,12,12.1,13.1
		c0,0.2,0.5,0.9,1.1,1.7c0.6,0.8,1.9,3,2.8,4.9c0.9,1.9,1.8,3.4,1.9,3.3c0.3-0.3-2.9-6.4-4.5-8.8c-0.8-1.2-1.8-2.7-2-3.2
		c-2.5-4.6-19.4-18.4-22.6-18.4c-0.4,0-2-0.7-4.6-1.8c-1.2-0.5-2.6-0.9-6.3-1.8c-1.1-0.2-2.5-0.6-3.2-0.9
		C265.2,118.1,138.5,117.8,137.1,118.4 M66.6,139.1c-2.7,5.8-5.2,12.9-5.2,14.5c0,0.4-0.2,0.9-0.4,1.1c-0.2,0.2-0.6,1.7-0.8,3.2
		c-0.2,1.6-0.5,3.2-0.7,3.6c-0.2,0.6-0.2,0.6,0.2,0.1c0.2-0.3,0.6-1.8,0.8-3.2c0.5-2.8,0.5-2.9,2.8-9.9c1.5-4.6,2.4-6.8,3.2-8.5
		c0.6-1.1,1.1-2.6,0.9-2.6C67.5,137.4,67.1,138.2,66.6,139.1 M310.3,155.1c0.1,0.7,0.5,1.7,0.8,2.4c0.7,1.6,2.2,7.9,2.2,9.2
		c0,2.5-0.3,2.5,14.3,2.4l13.2-0.1l0.1-2.5c0.1-1.4,0-2.8-0.2-3.1c-0.2-0.4-0.3,0.5-0.2,2.4l0.2,3h-13.1h-13.1l-0.3-0.9
		c-0.2-0.5-0.5-2-0.7-3.3c-0.6-3.5-1.3-6.2-1.8-7.5c-0.3-0.7-0.7-1.6-1-2.2C310.1,153.9,310.1,153.9,310.3,155.1 M89.2,155.3
		c-0.2,0.5-0.6,1.7-0.9,2.5c-0.3,0.9-0.7,2.3-1,3.2c-0.3,0.9-0.7,2.7-0.8,4c-0.5,4.1,0.9,3.8-14.1,3.8H59.3l0.2-3.3
		c0.1-2.4,0.1-2.9-0.2-1.9c-0.2,0.7-0.3,2.2-0.2,3.4l0.1,2l13.2,0.1c14.6,0.1,13.9,0.2,14.3-2.6c0.4-2.7,1.5-7.7,1.9-8.6
		c1-2.4,1.2-3.1,1.1-3.3C89.6,154.4,89.4,154.8,89.2,155.3 M136.9,155.7c-4.9,1.8-8.8,4.7-10.2,7.2c-0.3,0.5,0.7-0.3,2.2-1.7
		c4.8-4.8,13.4-7,20-5.1c2.1,0.6,1.9,0.2-0.3-0.5C145.8,154.6,139.5,154.7,136.9,155.7 M251.7,155.7c-1.1,0.4-1.5,0.7-1,0.5
		c16-4,29.5,8.2,26.1,23.6c-1.5,6.7-6,11.7-13.3,14.4c-2.2,0.9-10.4,1.1-11.4,0.3c-0.3-0.2-1.1-0.5-1.8-0.7
		c-0.7-0.2-2.2-0.9-3.3-1.6s-2.1-1.3-2.2-1.2c-0.3,0.3,4.1,2.9,5.4,3.2c0.8,0.2,1.6,0.5,1.9,0.7c0.7,0.6,9.6,0.6,10.8,0
		c4.9-2.2,6.3-3.1,7.9-4.6c4-3.9,4.8-5.2,6.7-11.6C281.6,165.6,264.8,150.6,251.7,155.7 M151.1,156.8c0.1,0.2,0.5,0.4,0.7,0.4
		c3.1,0,10.6,9.7,10.6,13.8c0,0.6,0.2,1.3,0.4,1.6c0.7,0.7-0.1,7.4-1.2,9.8c-1.6,3.7-2.1,4.4-4.6,6.9c-1.5,1.5-3.1,2.7-5.1,3.6
		c-1.6,0.7-3.3,1.5-3.8,1.7c-1.5,0.7-9.5,0.5-10.9-0.3c-0.7-0.4-1.5-0.6-1.8-0.6c-1.4,0-7.9-4.8-7.9-5.8c0-0.3-0.3-0.8-0.7-1.1
		c-0.4-0.4-1.1-1.6-1.6-2.7c-0.5-1.1-1.1-2.4-1.3-2.9c-1.5-2.9-0.6-11.5,1.6-15.6c0.8-1.5,0.8-1.6,0.2-0.9
		c-7.1,8-0.3,27.4,10.2,29.6c0.8,0.2,1.6,0.5,1.9,0.7c0.7,0.6,9.6,0.6,10.8,0c0.5-0.2,2.1-0.9,3.5-1.6c4.9-2.2,10.1-8.7,10.6-13.3
		c0.1-1,0.4-2,0.6-2.1c0.5-0.3,0.4-5.6-0.1-5.9c-0.2-0.1-0.4-0.8-0.4-1.6c0-2-2.8-7.2-5.3-9.6C155.1,158.4,150.1,155.3,151.1,156.8
		 M247.4,157.4c-1.7,0.8-6.6,5.3-6.6,6c0,0.1,1.4-1.1,3.2-2.8c1.7-1.7,3.4-3,3.7-3c0.5,0,2.3-1.2,1.9-1.2
		C249.4,156.4,248.5,156.9,247.4,157.4 M239.7,165.1c-2.1,3.1-3.3,13.3-1.8,16.4c0.2,0.5,0.9,1.9,1.3,3c0.9,1.9,2.8,4.3,2.8,3.4
		c0-0.2-0.3-0.7-0.7-1.1c-0.4-0.4-1.1-1.6-1.6-2.7c-0.5-1.1-1.1-2.4-1.3-2.9c-1.5-2.8-0.6-11.5,1.6-15.5
		C240.9,163.7,240.8,163.4,239.7,165.1 M59,184c0,1.3,0.1,2.5,0.3,2.7c0.2,0.1,0.3-0.8,0.2-2.1C59.3,181.4,59.1,181.2,59,184
		 M85.9,182.4c0.2,0.4,0.5,1.8,0.6,3c0.1,1.2,0.4,2.7,0.6,3.4c2,6.5,3.9,11.2,3.9,10c0-0.2-0.2-0.8-0.5-1.4
		c-1.2-2.4-3.8-11.5-3.8-13.4c0-0.4-0.3-1.2-0.6-1.6C85.5,181.6,85.5,181.6,85.9,182.4 M313.8,182.3c-0.2,0.3-0.5,1.7-0.7,3.2
		c-0.2,1.5-0.4,2.8-0.6,2.9c-0.2,0.1-0.4,0.9-0.6,1.7c-0.1,0.8-0.6,2.5-1,3.7c-0.6,1.6-0.6,2-0.2,1.4c0.3-0.4,0.6-1.1,0.6-1.5
		c0-0.4,0.2-0.8,0.4-0.9c0.2-0.1,0.5-1,0.6-2c0.1-1,0.4-1.9,0.6-2c0.2-0.1,0.5-1.5,0.6-3.1s0.5-3.1,0.7-3.4c0.2-0.3,0.3-0.5,0.2-0.5
		C314.2,181.8,314,182,313.8,182.3 M340.7,183.6c0,1.1-0.2,2.4-0.3,2.8c-0.2,0.6-0.1,0.6,0.2,0.3c0.3-0.3,0.4-1.3,0.3-2.8l-0.1-2.3
		L340.7,183.6 M242,188.6c0,0.1,0.6,0.6,1.3,1.3l1.3,1.2l-1.2-1.3C242.3,188.6,242,188.3,242,188.6 M60.3,192.4
		c0.2,1.2,0.5,2.6,0.7,3.1c0.2,0.4,0.7,2,1,3.6c0.8,3.4,1.9,6.2,4.3,11.4c0.6,1.3,1.1,2.3,1.2,2.3c0.2,0-0.3-1.4-1.1-3
		c-1.8-3.6-4.6-11.7-4.6-13.3c0-0.4-0.2-0.8-0.4-0.9c-0.2-0.1-0.5-1.3-0.6-2.6c-0.1-1.3-0.4-2.5-0.5-2.5
		C60.1,190.2,60.1,191.1,60.3,192.4 M339.6,190.6c-0.1,0.3-0.3,1.4-0.4,2.5c-0.1,1.1-0.4,2.2-0.6,2.4c-0.2,0.2-0.5,1.6-0.8,3
		c-0.3,1.4-0.6,2.8-0.8,3c-0.1,0.2-0.6,1.3-1,2.4c-0.4,1.1-0.9,2.5-1.2,3.2c-1.3,3.2-1.4,3.5-1.1,3.2c0.3-0.3,1.1-2.1,2.4-5.5
		c0.2-0.4,0.6-1.5,0.9-2.4c0.3-0.9,0.8-2.6,1.1-3.8c0.2-1.2,0.6-2.5,0.8-3c0.4-0.9,1.1-5.3,0.9-5.3
		C339.8,190.1,339.7,190.3,339.6,190.6 M308.6,199.1c-0.7,1.4-1.2,2.7-1.1,2.8c0.1,0.1,0.7-1,1.4-2.5
		C310.5,195.9,310.3,195.7,308.6,199.1 M91.5,200.1c0.2,0.5,0.7,1.5,1.1,2.3c0.8,1.7,4.3,7,4.9,7.3c0.7,0.4,0.3-0.3-1-1.9
		c-0.7-0.9-2.2-3.2-3.2-5.1C91.6,199.6,90.3,197.7,91.5,200.1 M306.2,203.9c-0.4,0.8-1.5,2.4-2.4,3.6c-0.9,1.1-1.6,2.2-1.6,2.4
		c0,0.4-9.1,9.6-9.6,9.6c-0.2,0-0.6,0.3-1,0.6c-0.4,0.3-1.3,1.1-2.1,1.8c-0.8,0.7-1.1,1.1-0.7,0.9c0.4-0.1,0.7-0.4,0.7-0.6
		c0-0.2,0.4-0.5,0.9-0.7c0.5-0.2,2.1-1.4,3.5-2.7c1.4-1.3,2.9-2.5,3.3-2.7c0.4-0.2,0.9-0.8,1.2-1.2c0.2-0.4,1.6-2.1,3.1-3.7
		c1.5-1.6,2.7-3.1,2.7-3.3c0-0.2,0.5-1,1.2-1.8c1.1-1.4,2.2-3.6,1.8-3.6C307,202.4,306.6,203.1,306.2,203.9 M99.3,211.9
		c0.9,1,1.7,2.1,1.9,2.4c0.1,0.4,0.9,1.2,1.7,1.8c0.8,0.6,2.6,2.1,3.9,3.2c1.3,1.1,3,2.4,3.8,2.9l1.4,0.8l-1.2-1
		c-0.7-0.6-1.8-1.5-2.7-2c-0.8-0.5-3.5-3-5.9-5.4C99.6,212.1,98.4,210.9,99.3,211.9 M68,213.8c0.5,1.3,3,5.8,4.1,7.2
		c1.2,1.6,3.2,4.5,3.8,5.6c0.2,0.4,1,1.3,1.7,1.9c0.7,0.6,1.2,1.3,1.2,1.5c0,1,13.3,13,16.7,15c3.4,2,4.7,2.8,5.9,3.6
		c0.8,0.5,3,1.6,5,2.5c2,0.9,4.1,1.9,4.8,2.2c1.6,0.8,4.2,1.4,4,1c-0.1-0.2-0.8-0.5-1.5-0.6c-2.4-0.5-10.4-4.4-15.9-7.8
		c-0.4-0.3-1.5-1.1-2.4-1.8c-0.9-0.7-1.8-1.3-1.9-1.3c-3.2,0-19.8-18.8-24.1-27.5C68,213.1,67.5,212.4,68,213.8 M331,215.1
		c-0.6,1.2-2,3.6-3.2,5.4c-1.2,1.8-2.1,3.4-2,3.5c0.3,0.3,5.1-7.2,6.1-9.5C332.7,212.5,332,213,331,215.1 M112.6,223.6
		c1.7,1.3,9.8,5.1,12.3,5.7c2.5,0.7,2,0.2-0.9-0.8c-3.1-1-9-3.8-10.4-4.8c-0.5-0.4-1.1-0.7-1.4-0.7
		C112.1,223,112.2,223.3,112.6,223.6 M286.7,223.5c-3,1.7-8.5,4.2-10.8,5c-2.9,1-3.4,1.4-0.9,0.8c2.5-0.6,10.6-4.4,12.3-5.7
		C288.3,222.8,288,222.8,286.7,223.5 M324.2,225.9c-0.6,0.7-1,1.5-1,1.6c0,0.2-0.9,1.5-2.1,2.9c-1.1,1.4-2.4,3.1-2.7,3.6
		c-0.3,0.5-2.4,2.9-4.6,5.1c-2.2,2.3-4.2,4.6-4.6,5.2c-0.4,0.6-0.9,1.1-1.1,1.1c-0.2,0-2.7,2.1-5.4,4.8s-5.2,4.8-5.4,4.8
		c-0.2,0-0.6,0.3-1,0.6c-1.6,1.5-5.4,4.5-5.7,4.6c-0.2,0-1.1,0.6-2,1.4c-0.9,0.8-1.8,1.4-2,1.4s-0.9,0.5-1.7,1.1
		c-1.5,1.1-1.7,1.3-5.1,3.4c-2.5,1.5-4.6,2.8-6.1,3.7c-0.6,0.3-1.1,0.7-1.1,0.8c0,0.2,2-0.6,2.8-1.2c0.3-0.2,2-1.3,3.8-2.3
		c1.7-1,4.6-2.8,6.3-4c1.7-1.2,3.3-2.2,3.4-2.2c0.2,0,0.5-0.2,0.7-0.5c0.2-0.3,1.3-1.1,2.4-1.8c1.1-0.7,2.1-1.5,2.1-1.6
		s0.4-0.5,1-0.8c3-1.6,21.2-18.6,21.2-19.9c0-0.1,1.1-1.5,2.4-2.9c1.3-1.4,2.4-2.8,2.4-3c0-0.2,0.6-1.1,1.3-2c1.4-1.7,3.5-5,3.3-5
		C325.3,224.6,324.8,225.2,324.2,225.9 M127.3,230c0.2,0.2,1.5,0.5,2.8,0.6c2.2,0.2,2.3,0.2,0.6-0.2c-1-0.2-2.2-0.5-2.8-0.6
		C127.3,229.7,127.1,229.8,127.3,230 M270.1,230.3l-2.2,0.5l2.2-0.2c1.2-0.1,2.3-0.4,2.6-0.6C273.1,229.6,272.9,229.6,270.1,230.3
		 M133.1,231.5c0.7,0.7,133,0.6,134.1-0.1l0.8-0.5l-0.8,0.3c-1.1,0.4-128.7,0.6-131.9,0.2C133.4,231.1,132.8,231.1,133.1,231.5
		 M13.7,235.9c-4.9,0.8-15.2,9-13.5,10.7c0.1,0.1,0.4-0.3,0.6-0.9c1.9-4.9,10-9.4,16.8-9.4c4.5,0,6.4,0.6,11.9,3.6
		c1.7,0.9,4.1,4,5.4,6.7c0.7,1.5,1.5,3.1,1.7,3.7c2.2,4.8-0.3,14.5-5,19.3c-2.1,2.1-3.6,3.2-7.6,5c-3.1,1.4-13.6,0.4-16.2-1.7
		c-0.5-0.4-1.1-0.8-1.3-0.8c-0.5,0-5.3-4.9-5.3-5.4c0-0.2-0.3-0.7-0.6-0.9c-0.9-0.7-0.7-0.1,0.3,1.3c9.5,13.3,29.4,11.1,35.6-3.9
		c0.9-2.1,1-2.9,1-7.5l0-5.1l-1.7-3.4C31.7,238.9,22.8,234.4,13.7,235.9 M378.2,236c-5.1,1.1-12,6.3-13.7,10.3
		c-0.3,0.8-0.9,2.1-1.3,2.8c-1.8,3.8-0.2,16.1,2.3,17.6c0.7,0.4,0.5-0.1-0.3-1.3c-2.2-3.1-3.2-13.1-1.5-16.1
		c0.4-0.7,0.7-1.4,0.7-1.7c0-1.7,5.1-7.1,8.3-8.9c9.3-5,20.2-2.3,26.2,6.6c1.4,2,1.4,1.6,0.1-0.7C395.4,238.4,385.7,234.4,378.2,236
		 M116.2,255c0.4,0.2,1.4,0.5,2.2,0.6c1,0.2,1.1,0.1,0.6-0.1c-0.4-0.2-1.4-0.5-2.2-0.6C115.9,254.7,115.7,254.8,116.2,255 M120,256
		c0.4,0.4,6.2,1.8,9.5,2.2c6.6,1,14.5,1.1,63.5,1.1c35.6,0,51,0.2,51,0.5c0,0.2-0.4,1.2-1,2.2c-0.5,1-0.8,1.7-0.6,1.5
		c0.4-0.2,2.4-3.9,2.4-4.3c0-0.1-25-0.2-55.6-0.3c-40.6-0.1-55.7-0.2-56.1-0.6c-0.3-0.2-2.1-0.6-4-0.7c-1.9-0.2-3.6-0.4-3.7-0.6
		c-0.1-0.2-1-0.4-2.1-0.6c-1-0.1-2.2-0.4-2.7-0.5C120.2,255.8,119.9,255.9,120,256 M240.4,266.2c-2.8,4.6-5.1,8.2-6.3,9.8
		c-0.7,0.9-1.2,1.7-1.1,1.8c0.3,0.3,4.7-5.7,4.7-6.4c0-0.1,0.5-0.9,1.2-1.7c0.7-0.8,1.2-1.6,1.2-1.8c0-0.2,0.5-1,1-1.8
		c0.6-0.8,1-1.6,0.8-1.7C241.8,264.2,241.1,265.1,240.4,266.2 M399,266.2c-0.6,1.4-4.2,5.2-5.8,6.1c-0.9,0.5-2.6,1.3-4.7,2.3
		c-1.4,0.6-11.7,0.6-12.4-0.1c-0.3-0.3-0.8-0.5-1.2-0.5c-0.4,0-1.3-0.4-2.1-1c-1.6-1.1-2-1.2-1.6-0.6c1.8,2.9,13.2,4.2,18.4,2.1
		c4.4-1.7,11.4-8.3,10.1-9.6C399.7,264.9,399.4,265.4,399,266.2 M367,268.6c0.6,0.7,1.8,1.8,2.5,2.4c0.8,0.6,0.3,0.1-1-1.3
		C366,267.1,365.2,266.5,367,268.6 M270.5,272.8c-1.4,1-12.3,6.4-12.9,6.4c-0.3,0-0.6,0.2-0.7,0.4c-0.6,1,13.7-5.9,15.1-7.2
		C272.5,271.8,271.4,272.1,270.5,272.8 M229.8,282c-1.5,2-3.1,4.2-3.6,4.9c-0.5,0.7-1.6,1.9-2.3,2.7c-0.9,0.9-1.3,1.7-1.2,2.1
		c0.3,0.7,1.7,0.9,2,0.3c0.1-0.2,0.9-0.5,1.7-0.6c1.8-0.3,6.1-1.8,5.9-2.1c-0.1-0.1-1.2,0.2-2.5,0.6c-1.3,0.4-2.9,0.9-3.7,1.1
		c-0.8,0.2-1.6,0.5-1.9,0.7c-0.4,0.3-0.6,0.3-0.9,0c-0.3-0.3,0.4-1.4,2.5-3.8c4.1-4.7,7.5-9.4,6.9-9.4
		C232.6,278.4,231.3,280,229.8,282 M253.9,280.9c-3.7,1.7-5,2.2-6.7,2.9c-1,0.4-2.2,0.9-2.8,1.2c-0.5,0.3-1.6,0.6-2.3,0.8
		c-0.7,0.2-1.4,0.4-1.5,0.6c-0.1,0.2-0.5,0.4-0.8,0.4c-0.8,0-2.7,0.8-2.5,1c0.2,0.2,0.9-0.1,3.7-1.3c0.7-0.3,1.6-0.5,1.9-0.5
		c0.4,0,1.1-0.2,1.7-0.6c0.6-0.3,2.7-1.2,4.6-2c4.6-1.9,6.9-3,6.9-3.2C256.2,279.9,255.7,280,253.9,280.9 M235.1,288.2
		c-0.4,0.1-1,0.4-1.2,0.6c-0.5,0.5,1.8,0,2.4-0.5C236.6,287.9,236.4,287.9,235.1,288.2 M91.9,349.3v30.1h8.1h8.1v-13.3v-13.3
		l1.5-1.5c2.4-2.4,4.7-2.1,6.9,0.9c0.9,1.3,0.9,1.5,1.1,14.2l0.2,12.9l7.8,0.1l7.8,0.1l0-15.4c0-8.4-0.2-15.8-0.3-16.3
		c-0.1-0.5-0.2,6.3-0.1,15.1l0.1,16.1h-7.5H118v-10.6c0-14.4-0.1-15.2-2.2-17.3c-1.9-2-3.5-2.3-5.5-1c-2.6,1.7-2.6,1.7-2.6,16l0,13
		H100h-7.7v-29.7v-29.7h7.7h7.7v10.5c0,5.8,0.1,10.5,0.3,10.5c0.2,0,0.8-0.4,1.5-0.8c0.7-0.4,1.8-1.1,2.6-1.5c0.8-0.4,1.2-0.8,1-0.8
		s-1.4,0.6-2.7,1.4l-2.3,1.4v-10.5v-10.5H100h-8.1V349.3 M70,321.1c-0.1,0.2,0.4,0.3,1.2,0.3c0.7,0,1.3-0.1,1.3-0.3
		c0-0.2-0.5-0.3-1.2-0.3C70.7,320.8,70.1,320.9,70,321.1 M62.2,322c-2.6,0.5-2.9,0.8-0.6,0.5c1.1-0.1,2.2-0.4,2.4-0.6
		s0.3-0.3,0.2-0.3C64,321.7,63.2,321.8,62.2,322 M79,321.9c0.2,0.2,1.2,0.4,2.1,0.6c1,0.1,1.5,0.1,1.2-0.1
		C81.5,322,78.6,321.5,79,321.9 M243.4,322c-3,0.2-5.6,0.4-5.7,0.5c-0.4,0.4,10.8-0.2,11.2-0.6c0.2-0.2,0.3-0.3,0.2-0.3
		C249,321.7,246.4,321.8,243.4,322 M261.2,322.1c0.1,0.2,1.1,0.3,2.2,0.3c2.1,0,3.4,0.3,6.7,1.3c1,0.3,1.9,0.4,1.9,0.2
		c0-0.2-0.3-0.4-0.7-0.4c-0.4,0-1.4-0.3-2.3-0.6C267.4,322.3,260.9,321.6,261.2,322.1 M57.9,323.2c-0.7,0.2-1.4,0.5-1.5,0.7
		c-0.3,0.4,2.2-0.3,2.7-0.8C59.6,322.7,59.6,322.7,57.9,323.2 M83.6,323c0,0.1,0.5,0.3,1,0.5c0.7,0.3,1,0.6,0.8,1.1
		c-0.1,0.4-0.3,1.4-0.5,2.3c-0.2,0.9-0.4,1.8-0.5,2c-0.4,0.6-1.2,5-0.8,4.7c0.2-0.2,0.5-1.2,0.7-2.3c0.2-1.1,0.7-3.2,1-4.7
		c0.3-1.5,0.5-2.9,0.4-3C85.6,323.3,83.6,322.8,83.6,323 M236.6,323.3c-0.1,0.3-0.1,13-0.1,28.2l0.1,27.7l1.3,0.3
		c0.7,0.1,1.2,0.1,1.1-0.1s-0.6-0.3-1.2-0.3h-1l0.1-28.1c0.1-15.5,0.1-28.1,0-28.1C236.9,322.8,236.7,323,236.6,323.3 M53.5,325.4
		c-2.6,1.2-9.8,8.3-10.6,10.4c-0.7,1.8-0.4,1.6,1-0.8c1.6-2.8,7-7.9,9.8-9.2c1.2-0.6,2.2-1.1,2.2-1.2
		C55.8,324.3,55.8,324.3,53.5,325.4 M273.1,324.9c1.9,1.1,3.9,2.9,4.9,4.4c1.6,2.4,3,8.5,2,9.5c-0.2,0.2-0.4,0.8-0.4,1.2
		c0,1-1.4,3.6-2.9,5.3c-0.8,0.9-0.9,1.2-0.3,0.7c1.5-1.3,3.2-4.1,3.5-5.6c0.1-0.8,0.4-1.5,0.6-1.6c0.4-0.3,0.4-4,0-4.3
		c-0.2-0.1-0.5-0.9-0.6-1.8c-0.3-1.8-2.7-5.9-3.7-6.2c-0.4-0.1-1.2-0.7-1.8-1.2c-0.6-0.5-1.3-0.9-1.6-0.9
		C272.5,324.4,272.6,324.6,273.1,324.9 M201.2,326.1c-1.4,0.3-3.6,0.7-4.8,1s-2.5,0.6-3,0.8c-0.4,0.2-1.6,0.5-2.7,0.6
		c-1.5,0.2-1.9,0.4-2.1,1.1c-0.3,1.5-0.4,7.8-0.1,7.8c0.2,0,0.3-1.8,0.3-4c0-4.4,0.2-4.7,3.2-4.7c0.6,0,1.2-0.2,1.4-0.4
		c0.1-0.2,1.2-0.5,2.5-0.6c1.2-0.2,2.4-0.4,2.7-0.6c0.2-0.2,1.3-0.4,2.4-0.6c1.1-0.1,2.3-0.4,2.7-0.5c0.6-0.2,0.7,0.3,0.7,5.6
		c0,3.2,0.1,5.8,0.3,5.8c0.5,0,0-11.6-0.5-11.7C203.9,325.7,202.6,325.9,201.2,326.1 M353.7,326c-1.2,0.2-2.5,0.5-3,0.7
		c-0.4,0.2-1.7,0.5-2.9,0.6c-1.1,0.1-2.2,0.4-2.3,0.6c-0.1,0.2-0.7,0.4-1.4,0.4c-2.9,0-3.1,0.3-3.2,4.9c-0.1,2.3,0,4.2,0.2,4.2
		c0.2,0,0.3-1.9,0.3-4.1v-4.1l1.9-0.3c1-0.2,2.1-0.4,2.3-0.6c0.2-0.2,1.4-0.4,2.6-0.6c1.2-0.2,2.4-0.4,2.6-0.6
		c0.2-0.2,1.3-0.4,2.4-0.6c1.1-0.1,2.3-0.4,2.7-0.5c0.6-0.2,0.7,0.3,0.7,5.6c0,3.2,0.1,5.8,0.3,5.8c0.2,0,0.2-2.7,0.2-5.9
		c-0.1-4.3-0.2-5.9-0.6-5.9C356.1,325.6,354.9,325.8,353.7,326 M252.2,334.4c-0.4,1.6-0.3,8.8,0.1,9.4c0.5,0.8,6.6,0.3,8.6-0.7
		c4.3-2.2,4.8-6.7,0.8-8.8C259.3,333,252.5,333.1,252.2,334.4 M261.2,334.5c5.9,2.8,2.5,8.6-5.2,9.1l-3.3,0.2v-5v-5h3.6
		C258.8,333.9,260.3,334.1,261.2,334.5 M66.7,335c-2.1,0.8-3.8,1.7-3.6,1.9c0.1,0.1,0.9-0.2,1.7-0.7c2-1.3,12.2-1.4,15.1-0.2
		c1.9,0.8,3.3,0.9,3.3,0.3c0-0.2-0.2-0.3-0.5-0.2c-0.3,0.1-1.3-0.1-2.3-0.5C78.5,334.9,68.2,334.4,66.7,335 M114.3,336.9
		c-0.1,0.2,1.9,0.3,4.5,0.3c2.6,0,4.6-0.1,4.5-0.3c-0.1-0.2-2.1-0.3-4.5-0.3C116.4,336.6,114.4,336.8,114.3,336.9 M152.7,336.9
		c-0.1,0.2,2.9,0.3,6.7,0.3c3.8,0,6.8-0.1,6.7-0.3c-0.1-0.2-3.1-0.3-6.7-0.3C155.8,336.6,152.8,336.8,152.7,336.9 M304.3,336.9
		c-0.3,0.2,2.4,0.3,6,0.3c3.6,0,6.4-0.1,6.3-0.3C316.3,336.5,304.9,336.6,304.3,336.9 M60.1,339.4c-1.2,1.3-2.2,2.5-2.2,2.6
		c0,0.2,0.1,0.2,0.1,0.1c0.1-0.1,1.2-1.3,2.4-2.6c1.3-1.4,2.2-2.5,2.1-2.5C62.4,337,61.3,338.1,60.1,339.4 M41.6,338.4
		c-0.6,1.5-0.5,1.8,0.2,0.5c0.3-0.6,0.5-1.2,0.4-1.3C42.1,337.4,41.8,337.8,41.6,338.4 M124.8,337.8c0,0.2,0.4,0.5,1,0.6
		c1.1,0.3,5.8,5.2,5.8,6.2c0,0.4,0.3,1,0.6,1.4c0.5,0.7,0.5,0.6,0.1-0.7c-0.3-0.8-0.7-1.7-1-2c-0.3-0.3-0.5-0.7-0.5-0.9
		c0-0.3-0.8-1.2-1.7-2.1C127.1,338.6,124.8,337.2,124.8,337.8 M148.2,337.9c-0.9,0.2-1.7,0.4-1.6,0.5c0.3,0.3,3.5-0.3,3.5-0.7
		c0-0.2,0-0.3-0.1-0.3C149.9,337.5,149.1,337.7,148.2,337.9 M168.1,337.8c0.1,0.2,0.5,0.4,0.8,0.4c2.9,0,9.3,6.4,9.3,9.3
		c0,0.3,0.2,0.7,0.4,0.8c1.5,0.9-1.7-5.2-3.7-7.1C173,339.3,167.3,336.5,168.1,337.8 M183.9,343.5l0,6l2.3,0.1l2.3,0.1l0.1,9.2
		c0.1,8.5,0.5,12.5,1.2,13.2c0.4,0.4-0.2-3.1-0.6-3.9c-0.2-0.4-0.3-4.8-0.3-9.8v-9.1h-2.4h-2.4l-0.1-5.9l-0.1-5.9L183.9,343.5
		 M212.5,343.3v5.8l-4.1,0.1l-4.1,0.1l0,6.8c0,10.1,0.6,11.4,5.7,11.4h2.6v5.7c0,4-0.1,5.8-0.5,6.2c-0.4,0.5-0.4,0.5,0.2,0
		c0.6-0.5,0.7-1.2,0.6-6.3l-0.1-5.8l-2.4-0.1c-5.2-0.2-5.7-1.2-5.7-11.1v-6.3l4.1-0.1l4.1-0.1l0.1-6c0.1-3.3,0-6-0.2-6
		C212.6,337.4,212.5,340.1,212.5,343.3 M301.1,337.9c-0.7,0.2-1.4,0.5-1.5,0.7c-0.2,0.4,2.4-0.4,2.8-0.9
		C302.7,337.4,302.8,337.4,301.1,337.9 M318.6,337.7c0.2,0.2,0.9,0.5,1.6,0.6c1.4,0.3,0.6-0.3-1-0.7
		C318.6,337.4,318.4,337.5,318.6,337.7 M336,343.5l0,6l2.4,0.1l2.4,0.1l0.1,10.5c0.1,7.7,0.3,10.6,0.6,11c0.3,0.3,0.5,0.7,0.5,1
		c0,0.7,0.8,2.7,1,2.5c0.2-0.2-0.6-2.7-1.2-3.5c-0.2-0.3-0.5-5.2-0.6-11.1l-0.2-10.5l-2.5-0.1l-2.5-0.1l-0.1-5.9l-0.1-5.9L336,343.5
		 M364.8,343.3l-0.1,6h-4.2h-4.2l0.1,7.5c0.1,5.3,0.3,7.7,0.6,8c0.4,0.4,0.4,0.2,0.1-0.9c-0.2-0.7-0.4-4.3-0.4-7.8v-6.4h4
		c4.8,0,4.4,0.6,4.2-6.8l-0.1-5.7L364.8,343.3 M322.4,339.3c0.5,0.4,1.5,1.2,2.2,1.7c0.7,0.6,1.5,1.1,1.9,1.3c0.4,0.1,0.9,0.7,1,1.2
		c0.2,0.5,0.6,1.2,1,1.5c0.8,0.7,2.5,4.2,2.8,5.9c0.1,0.7,0.4,1.4,0.6,1.5c0.5,0.3,0-1.7-1.1-4.2c-1-2.3-3.9-6.3-4.5-6.3
		c-0.2,0-0.8-0.4-1.3-0.9c-0.5-0.5-1.6-1.2-2.3-1.6C321.4,338.6,321.4,338.6,322.4,339.3 M143.4,339.7c-0.9,0.7-0.9,5.2,0,5.2
		c0.2,0,0.2-0.7,0-1.5c-0.6-2.6-0.5-3.2,0.9-3.8c0.7-0.3,1-0.6,0.6-0.6C144.5,339,143.8,339.3,143.4,339.7 M297.2,339.6
		c-0.7,0.3-2.3,1.7-3.6,3.1l-2.4,2.5l2.4-2.2c1.3-1.2,3.1-2.6,4-3.1c0.9-0.4,1.4-0.8,1.2-0.8C298.6,339,297.9,339.3,297.2,339.6
		 M40.6,341c-1.3,2-1.6,15.7-0.5,19.4l0.7,2.2l-0.2-1.8c-0.1-1-0.4-2.1-0.6-2.4c-0.5-0.9-0.5-12,0-12.9c0.3-0.7,1.2-4.8,1-4.8
		C40.9,340.6,40.7,340.8,40.6,341 M57.4,342.7c0,0.1-0.2,0.7-0.4,1.5c-0.2,0.7-0.2,1.2-0.1,1c0.4-0.4,0.9-2.5,0.6-2.5
		C57.5,342.6,57.4,342.6,57.4,342.7 M143.8,346c0,1.4,1.2,4.9,1.7,4.9c0.3,0,1.4-0.4,2.6-1c1.1-0.5,3-1.2,4.1-1.4
		c1.1-0.2,1.9-0.5,1.8-0.6c-0.3-0.3-4.1,0.7-6.1,1.7c-2.4,1.2-2.6,1.1-3.4-2C144.1,346.2,143.8,345.5,143.8,346 M290.3,346.6
		c-0.4,1.2-0.4,1.2,0.2,0.5c0.3-0.4,0.6-1,0.6-1.3C291.1,345,290.8,345.3,290.3,346.6 M56.1,347.2c-0.4,0.4-0.3,6.8,0,7
		c0.2,0.1,0.3-1.5,0.3-3.5c0-2,0-3.7,0-3.7C56.4,346.9,56.3,347.1,56.1,347.2 M161.2,348.5c2.5,1.4,2.3,2-1,2.1l-2.9,0.1l3.1,0.1
		c2.5,0.1,3.1,0,3.1-0.5c0-0.6-1.4-2.2-1.9-2.2c-0.2,0-0.7-0.1-1.1-0.2C160.1,347.8,160.4,348,161.2,348.5 M272.5,348.1
		c-0.7,0.5-0.7,0.5,2,1.7c2,1,4.7,3.3,5.3,4.6c0.2,0.3,0.6,1.2,1,2l0.8,1.4l-0.2-1.2c-0.1-0.7-0.5-1.4-0.8-1.6
		c-0.3-0.2-0.5-0.6-0.5-0.8c0-0.6-3.7-3.9-5.2-4.7c-0.8-0.4-1.5-1-1.6-1.3C273.1,347.9,272.9,347.9,272.5,348.1 M289,349.4
		c-2.4,5.2-2.1,14.6,0.8,20.2c1.5,2.9,6.4,8,8.2,8.4c0.8,0.2,0.7,0.1-0.3-0.7c-0.6-0.5-1.4-1-1.6-1c-1.8-0.1-7.1-7.9-7.5-11.3
		c-0.1-0.9-0.4-2-0.6-2.4c-0.8-1.7,0.3-11.3,1.5-13.1c0.3-0.5,0.5-1,0.4-1.1C289.7,348.2,289.3,348.6,289,349.4 M306.7,349.8
		c-4.9,5.1-2.6,19.3,3.2,19.3c2.4,0,4.6-1.5,5.2-3.6c0.2-0.7,0-0.6-0.7,0.5c-2.8,4.4-8.2,2.9-9.4-2.5c-2.3-10.8,3.3-19.3,8.7-13.2
		c0.9,1,1.5,1.5,1.4,1.1C313.7,347.8,309.4,346.9,306.7,349.8 M179.3,355.6c0.1,3.8,0.2,10.6,0.2,15.1l0.1,8.2h-6.9h-6.9l-0.2-1.2
		c-0.3-1.5-0.4-1.5-2.6,0c-1,0.6-2,1.2-2.4,1.2c-0.4,0-0.8,0.2-0.9,0.4c-0.3,0.6,1.8-0.1,3.4-1.1c1.7-1.1,1.8-1.1,2.3,0.1l0.5,1h7h7
		l-0.1-14c-0.1-7.7-0.3-14.6-0.4-15.3S179.2,351.8,179.3,355.6 M154.5,351.3c-1.4,0.2-3.1,0.6-3.8,0.9c-0.7,0.3-1.9,0.9-2.7,1.2
		c-3.1,1.3-7.7,5.9-6.8,6.8c0.1,0.1,0.4-0.2,0.6-0.8c0.6-1.5,3.7-4.4,5.7-5.3c0.9-0.4,2.4-1.1,3.2-1.4c0.8-0.4,2.6-0.8,3.9-0.9
		c1.3-0.1,2.4-0.4,2.6-0.6c0.1-0.2,0.2-0.3,0.1-0.3C157.1,351,155.9,351.1,154.5,351.3 M315.7,354.7c0.4,2.4,0.2,7.6-0.3,9
		c-0.2,0.7-0.2,0.7,0.3,0.3c0.7-0.7,0.8-10.5,0.1-11.2C315.5,352.5,315.5,353,315.7,354.7 M252.2,356.1c-0.4,1-0.3,11.1,0.1,11.8
		c0.5,0.8,6,1.2,6.5,0.4c0.1-0.2,0.7-0.4,1.3-0.4c6.4,0,7.2-10.1,1-11.9c-1.9-0.5-2-0.2-0.1,0.4c2.6,0.8,4.2,2.7,4.2,5.2
		c0,4.1-2.4,5.8-8.6,6.1l-3.9,0.2l0.1-6.2C252.9,356.3,252.7,354.7,252.2,356.1 M332.5,358.4c0,1.5,0.1,2.6,0.3,2.5
		c0.2-0.1,0.3-1.2,0.3-2.5c0-1.3-0.1-2.4-0.3-2.5C332.6,355.8,332.5,356.9,332.5,358.4 M56.9,357.4c0.1,0.5,0.4,1.1,0.6,1.3
		c0.3,0.2,0.3,0,0.2-0.4c-0.1-0.4-0.3-0.9-0.3-1.3c0-0.3-0.2-0.6-0.3-0.6C56.9,356.4,56.8,356.9,56.9,357.4 M281.8,362.4
		c0,2.1,0.1,3.7,0.3,3.4c0.4-0.6,0.4-6.9,0-7.1C281.9,358.6,281.8,360.2,281.8,362.4 M58.3,360.1c0.8,1.6,2.4,3.5,2.9,3.5
		c0.3,0,0.8,0.3,1,0.6c0.3,0.3,0.9,0.8,1.3,1c0.5,0.2,0.2-0.1-0.6-0.8c-0.8-0.7-1.6-1.2-1.9-1.2c-0.3,0-1-0.9-1.7-2
		C58.1,359.2,57.4,358.5,58.3,360.1 M161,360.8c-0.1,0.2-0.7,0.4-1.3,0.4s-1.4,0.2-1.8,0.6c-0.8,0.6,1.7,0,3.5-0.7
		c3.2-1.4,3.8,3.8,0.8,6.7c-3.2,3.1-7.9-0.3-5.9-4.3c0.4-0.8,0.4-0.8-0.2-0.1c-3.4,4.3,3.1,8.1,6.8,4c1.9-2.1,2.5-6.1,1.1-6.7
		C162.8,360.3,161.3,360.4,161,360.8 M140.3,361.3c-0.2,0.3-0.4,1.3-0.6,2.3c-0.2,1-0.4,2.3-0.6,2.9c-0.2,0.6-0.1,1.5,0.1,2
		c0.2,0.5,0.5,1.7,0.7,2.7c0.1,1,0.4,2,0.5,2.1c0.4,0.2-0.3-3.7-0.8-4.6c-0.4-0.9-0.4-1.7,0-3.2c0.5-1.7,1.1-4.6,1-4.6
		C140.7,360.8,140.5,361,140.3,361.3 M41.2,363.9c0,0.2,0.3,0.7,0.6,1.1c0.6,0.7,0.6,0.7,0.3-0.1C41.9,364,41.2,363.2,41.2,363.9
		 M331.8,364.7c-0.1,0.2-0.3,0.8-0.4,1.5c-0.8,3.4-6.5,10.9-8.3,10.9c-0.3,0-0.8,0.3-1.2,0.6c-0.7,0.6-0.7,0.6,0.4,0.2
		c0.7-0.2,1.6-0.8,2.1-1.2c0.5-0.5,1.3-1,1.8-1.3c1.7-0.9,4.9-6.1,5.8-9.4C332.2,364.5,332.2,363.9,331.8,364.7 M64.8,365.9
		c0.4,0.4,3.3,1,7.3,1.5c0.9,0.1,2.1,0,2.6-0.2c0.5-0.2,2-0.5,3.5-0.7c1.5-0.1,2.8-0.4,2.9-0.7c0.2-0.3,0-0.3-0.5-0.1
		c-0.4,0.2-1.9,0.4-3.2,0.5c-1.4,0.1-2.6,0.4-2.7,0.6c-0.3,0.4-4,0.4-4.3,0c-0.1-0.2-1.2-0.4-2.3-0.6s-2.4-0.4-2.9-0.5
		C64.6,365.5,64.5,365.5,64.8,365.9 M357.6,365.9c0,0.8,2.5,1.6,4.8,1.6h2.3l-0.1,6.1c-0.1,3.4,0,6,0.2,5.9c0.2-0.1,0.3-2.9,0.3-6.3
		v-6.1h-2.6c-2,0-2.9-0.2-3.8-0.8C358.1,365.9,357.6,365.7,357.6,365.9 M42.4,366.3c0,0.2,0.4,1,1,1.8c0.5,0.8,1,1.6,1,1.8
		c0,1.4,10.6,9,11.4,8.2c0.1-0.1-0.9-0.7-2.2-1.3c-3.8-1.8-10.3-8.1-10.3-10c0-0.2-0.2-0.5-0.4-0.7C42.6,366,42.4,366.1,42.4,366.3
		 M280.4,369.4c-0.9,1.9-4.9,6.5-5.7,6.5c-0.2,0-0.8,0.3-1.2,0.6c-0.7,0.6-0.7,0.6,0.4,0.2c2.3-0.8,8.5-8.1,7.6-9
		C281.4,367.6,280.9,368.3,280.4,369.4 M83.3,369.9c0.1,0.5,0.3,1.9,0.4,3s0.4,2.5,0.7,3.2c0.6,1.7,0,2.4-2.5,2.7
		c-1.1,0.1-2,0.4-2.1,0.5c-0.4,0.6,3.9-0.4,4.6-1c0.8-0.7,1-2.3,0.4-2.7c-0.2-0.1-0.5-1.4-0.6-2.9c-0.1-1.5-0.4-3-0.6-3.3
		C83.2,369.1,83.2,369.2,83.3,369.9 M190.1,372.9c0,0.6,1.6,2.9,2.8,4.1c2,1.9,1.9,1.4-0.2-0.8c-1-1.1-1.8-2.2-1.8-2.6
		c0-0.3-0.2-0.7-0.4-0.8C190.3,372.7,190.1,372.8,190.1,372.9 M141.6,374.9c1,1.7,2.2,3,2.7,3c0.3,0,0.7,0.3,0.9,0.6
		c0.5,0.7,2.9,1.6,2.6,1c-0.1-0.2-0.4-0.4-0.7-0.4c-0.6,0-3.5-2-4.1-2.8c-0.2-0.3-0.8-1-1.3-1.6l-0.9-1L141.6,374.9 M344.8,376.6
		c0.9,0.9,1.6,1.6,1.7,1.6c0.1,0-0.5-0.7-1.3-1.6c-0.9-0.9-1.6-1.6-1.7-1.6C343.3,375.1,343.9,375.8,344.8,376.6 M271.1,377.3
		c-0.4,0.1-1,0.4-1.2,0.6c-0.5,0.5,1.8,0,2.4-0.5C272.7,377,272.4,377,271.1,377.3 M195,378.6c0.1,0.2,0.8,0.5,1.4,0.8
		c0.7,0.2,1.1,0.3,1,0.1c-0.1-0.2-0.8-0.5-1.4-0.8C195.4,378.4,194.9,378.4,195,378.6 M265.8,378.8c-1.6,0.3-3,0.6-3.2,0.8
		c-0.2,0.2,0.1,0.2,0.5,0.1c0.4-0.1,1.8-0.3,3.1-0.5c1.2-0.1,2.4-0.4,2.5-0.6c0.1-0.2,0.2-0.3,0.1-0.3
		C268.8,378.3,267.4,378.5,265.8,378.8 M299.4,378.6c0,0.2,0.1,0.4,0.3,0.4c0.2,0,1,0.2,1.8,0.4c0.9,0.2,1.4,0.2,1.3,0
		c-0.1-0.2-0.6-0.4-1-0.4s-1.1-0.2-1.6-0.4C299.6,378.3,299.4,378.3,299.4,378.6 M318.9,378.9c-0.9,0.3-1.6,0.7-1.6,0.8
		c0.2,0.2,3-0.6,3.3-1c0.1-0.2,0.2-0.4,0.1-0.4C320.6,378.3,319.8,378.6,318.9,378.9 M347.1,378.5c0.5,0.4,2.6,1.3,2.6,1.1
		c0-0.2-2.2-1.4-2.6-1.4C346.9,378.2,346.9,378.4,347.1,378.5 M57.8,379c1.6,0.5,3.8,0.9,3.2,0.5c-0.3-0.2-1.4-0.5-2.4-0.6
		C57.4,378.7,57.2,378.7,57.8,379 M64,380.3c0.1,0.2,2.9,0.3,6.3,0.3c3.4,0,6.2-0.1,6.3-0.3s-2.7-0.3-6.3-0.3
		C66.7,380,63.9,380.1,64,380.3 M149.8,380.3c0.3,0.2,2.2,0.3,4.2,0.3c2.1,0,4-0.1,4.2-0.3c0.3-0.2-1.6-0.3-4.2-0.3
		C151.5,380,149.6,380.1,149.8,380.3 M199.3,380.3c0.3,0.2,2.4,0.3,4.8,0.3c2.4,0,4.6-0.1,4.8-0.3c0.3-0.2-1.9-0.3-4.8-0.3
		S199.1,380.1,199.3,380.3 M246.9,380.3c0.6,0.4,9.3,0.4,9.5,0c0.1-0.2-2.1-0.3-4.9-0.3C248.7,380,246.6,380.1,246.9,380.3
		 M304.8,380.3c0.1,0.2,2.4,0.3,5.1,0.3s5-0.1,5.1-0.3c0.1-0.2-2.2-0.3-5.1-0.3C307,380,304.7,380.1,304.8,380.3 M351.5,380.3
		c0.1,0.2,2.3,0.3,4.9,0.3c2.6,0,4.8-0.1,4.9-0.3c0.1-0.2-2.1-0.3-4.9-0.3S351.4,380.1,351.5,380.3"/>
	<path id="path4" class="st3" d="M96.7,0.6c-1.4,0.7-3.5,3-3.8,3.8c-0.1,0.4,0.6-0.1,1.5-1.2c1-1.1,2.3-2.2,3-2.6
		c0.7-0.4,1-0.6,0.7-0.6C97.9,0.1,97.2,0.3,96.7,0.6 M108.9,1c0.7,0.5,1.5,1,1.6,1c0.3,0,2.8,3.8,2.8,4.2c0,0.1,0.3,0.8,0.6,1.6
		c3.4,7.2-6.3,16.6-14.3,13.8c-6.3-2.1-9.8-9.5-7.2-15.5c0.3-0.7,0.3-0.7-0.2-0.3c-1.1,1.1-1,8,0.2,10.3c1.2,2.4,3.4,4.4,5.4,5.2
		c0.8,0.3,1.7,0.7,2.1,0.9c0.9,0.5,5.3,0.5,5.6,0c0.1-0.2,0.8-0.4,1.6-0.6c3.6-0.6,7.7-6.5,7.7-11.1c0-1.2-0.2-2.3-0.4-2.5
		c-0.2-0.1-0.4-0.6-0.4-1c0-1.2-3-5.4-4.5-6.3C107.6-0.3,107.3-0.2,108.9,1 M290.2,1c-1.9,1.2-3.8,3.8-4.1,5.6
		c-0.1,0.7-0.4,1.4-0.6,1.6c-0.5,0.3-0.5,4.3,0,5.2c0.2,0.4,0.8,1.7,1.4,2.9c2.1,4.6,9.5,7.9,13.3,5.9c0.4-0.2,1.3-0.6,2.1-0.9
		c2.5-0.9,7.1-6.4,6.2-7.4c-0.1-0.1-0.4,0.2-0.6,0.8c-2.9,7.6-12.2,9.7-18.8,4.3c-0.6-0.5-2-3.2-3-5.7c-1.1-2.7,1.5-11.4,3.4-11.4
		c0.2,0,0.9-0.4,1.7-1C292.8-0.3,292.1-0.3,290.2,1 M302.4,0.6c1.8,0.9,4,3.3,4.9,5.2c0.9,1.8,1.4,2.3,0.8,0.7
		c-1.2-3.2-4.5-6.5-6.4-6.5C301.4,0,301.7,0.3,302.4,0.6"/>
</g>
</svg>
